<svg width="375" height="322" viewBox="0 0 375 322" fill="none" xmlns="http://www.w3.org/2000/svg">
<g opacity="0.8" clip-path="url(#clip0_42_50)">
<g opacity="0.6">
<path d="M375 157.721C375.029 165.527 374.124 173.308 372.302 180.896C371.694 183.386 370.965 185.868 370.131 188.31C369.888 189.009 369.645 189.709 369.385 190.401C369.175 190.971 368.956 191.54 368.737 192.102L368.551 192.565C368.316 193.151 368.081 193.737 367.83 194.315L367.708 194.6C367.465 195.169 367.214 195.739 366.963 196.301L366.623 197.041C366.396 197.546 366.161 198.042 365.918 198.538C365.675 199.035 365.407 199.588 365.148 200.109C365.051 200.296 364.962 200.483 364.864 200.662L364.176 202.005L363.617 203.038C362.758 204.633 361.859 206.207 360.919 207.758C360.538 208.393 360.149 209.028 359.752 209.654C359.663 209.809 359.566 209.963 359.469 210.118C359.015 210.834 358.553 211.55 358.083 212.266C357.702 212.844 357.322 213.422 356.925 214L355.896 215.505L355.669 215.822C355.312 216.343 354.94 216.864 354.575 217.385C354.121 218.028 353.66 218.654 353.198 219.289C353.101 219.419 353.012 219.549 352.914 219.671C352.388 220.396 351.845 221.112 351.294 221.82C350.97 222.243 350.646 222.633 350.314 223.089C349.73 223.862 349.131 224.627 348.523 225.392C347.915 226.157 347.365 226.849 346.773 227.573L346.579 227.809C345.995 228.533 345.412 229.249 344.812 229.965C344.642 230.185 344.456 230.405 344.278 230.616C343.735 231.275 343.184 231.935 342.657 232.586C341.069 234.473 339.468 236.345 337.853 238.201C334.569 241.998 331.218 245.766 327.799 249.503C324.955 252.596 322.071 255.672 319.13 258.691C305.016 273.249 289.736 286.83 273.12 297.653C271.054 298.996 268.972 300.306 266.865 301.551L264.556 302.91L264.159 303.138C263.349 303.593 262.539 304.041 261.769 304.48C260.999 304.92 260.149 305.384 259.338 305.815L258.22 306.401C256.6 307.247 254.98 308.061 253.359 308.842C252.476 309.265 251.593 309.656 250.702 310.071C249.811 310.486 249.082 310.811 248.231 311.169L247.218 311.601C246.465 311.926 245.703 312.235 244.942 312.544C243.472 313.141 241.993 313.708 240.502 314.245L238.784 314.864L237.812 315.197L236.192 315.726L234.798 316.174H234.75C233.837 316.461 232.921 316.733 232.003 316.988C230.553 317.411 229.103 317.801 227.644 318.176C226.68 318.42 225.716 318.648 224.744 318.867C223.772 319.087 222.913 319.274 221.989 319.47L221.77 319.51C220.814 319.705 219.85 319.893 218.886 320.064L217.412 320.316L215.921 320.552C215.475 320.625 215.022 320.69 214.576 320.747L212.956 320.975C207.214 321.705 201.429 322.034 195.642 321.96H194.605C189.362 321.855 184.128 321.461 178.928 320.78L177.786 320.625L175.817 320.348L174.286 320.104C172.123 319.762 169.976 319.372 167.804 318.932C167.326 318.843 166.856 318.745 166.386 318.639C164.944 318.338 163.494 318.013 162.06 317.671C161.096 317.443 160.14 317.207 159.184 316.963L157.75 316.589L156.316 316.206C154.412 315.694 152.516 315.14 150.645 314.579C148.452 313.912 146.27 313.204 144.098 312.455L141.733 311.641C139.302 310.771 136.872 309.851 134.441 308.899L133.12 308.362L132.059 307.898L131.346 307.573C129.774 306.856 128.105 306.018 126.226 305.074L125.286 304.586C124.16 303.992 122.985 303.365 121.778 302.698C119.242 301.298 116.528 299.752 113.676 298.068C81.269 278.912 31.6373 242.961 19.9869 229.331C19.3955 228.639 18.8203 227.939 18.2451 227.231C17.7995 226.678 17.3539 226.116 16.9245 225.547C16.4951 224.977 16.1143 224.521 15.7578 223.992C15.4013 223.464 15.0854 223.073 14.7613 222.601C14.4372 222.129 14.1455 221.73 13.8458 221.291L13.781 221.193C13.4164 220.648 13.0518 220.103 12.6953 219.566C12.3388 219.029 12.0148 218.508 11.6907 217.938C11.5287 217.686 11.3747 217.426 11.2208 217.165C10.8589 216.563 10.5024 215.961 10.1514 215.359C9.77867 214.691 9.40599 214.024 9.0414 213.349C8.40946 212.169 7.80183 210.981 7.2347 209.776L6.79721 208.84C5.65049 206.378 4.63895 203.854 3.76713 201.281C3.45116 200.386 3.1676 199.482 2.89214 198.579C2.54376 197.415 2.22779 196.244 1.93612 195.072C1.87941 194.836 1.8227 194.608 1.77409 194.372C1.62825 193.762 1.49052 193.143 1.369 192.525C1.18266 191.662 1.02872 190.8 0.88289 189.929C0.88289 189.717 0.809973 189.506 0.785668 189.294C0.712752 188.847 0.647938 188.399 0.591225 187.943C0.534512 187.488 0.453495 186.861 0.396782 186.316C0.396782 186.129 0.356273 185.95 0.34007 185.771C0.291459 185.307 0.25905 184.843 0.218541 184.387C0.222894 184.349 0.222894 184.311 0.218541 184.273C0.178032 183.72 0.145626 183.175 0.129422 182.646C0.125609 182.594 0.125609 182.543 0.129422 182.491C0.129422 181.916 0.113218 181.339 0.0808105 180.758V179.131C0.0808105 178.317 0.12132 177.43 0.169931 176.583C0.169931 176.03 0.242847 175.477 0.291458 174.956C0.388679 173.866 0.518309 172.775 0.680345 171.701C0.761363 171.148 0.850483 170.594 0.955807 170.074C1.15025 168.989 1.3852 167.89 1.66066 166.778C2.37594 163.929 3.31046 161.14 4.45578 158.437C5.31228 156.392 6.28335 154.398 7.36433 152.464C7.44535 152.301 7.54257 152.13 7.63979 151.968C12.0067 144.245 17.9453 137.393 24.6536 131.046C25.3665 130.363 26.0876 129.695 26.8249 129.036C27.5621 128.377 28.3723 127.637 29.1582 126.937L29.304 126.807C30.5571 125.722 31.8291 124.637 33.12 123.552C35.1049 121.883 37.1222 120.248 39.1558 118.62L39.3583 118.457C41.1002 117.074 42.8583 115.699 44.6083 114.332C47.3629 112.192 50.1256 110.06 52.8316 107.936L54.9705 106.251C55.7807 105.633 56.5261 105.014 57.2957 104.396C64.2011 98.7628 70.6638 92.6035 76.6266 85.9727C77.7501 84.7358 78.8681 83.4907 79.9808 82.2376C80.5074 81.6354 81.034 81.0414 81.5525 80.4392C88.9495 71.9762 95.8279 63.4156 103.484 55.3351C105.31 53.4092 107.179 51.5104 109.091 49.6388C110.711 48.0846 112.331 46.5547 114.065 45.0574C115.969 43.2102 117.938 41.4932 120.02 39.8657C122.896 37.6198 125.926 35.4633 129.167 33.4046C129.977 32.8919 130.787 32.3955 131.541 31.9073C212.324 -18.5451 271.783 -2.05858 311.449 31.9073C314.458 34.5004 317.353 37.1532 320.134 39.8657C321.82 41.4932 323.448 43.1939 324.995 44.9028C325.174 45.0818 325.336 45.269 325.506 45.4643C326.619 46.6524 327.699 47.8486 328.747 49.0529L329.678 50.1271C330.14 50.6641 330.602 51.2012 331.056 51.7546C331.509 52.3079 332.166 53.081 332.716 53.7482L333.745 55.0177C335.957 57.7519 338.064 60.5268 340.073 63.3179C340.478 63.8713 340.883 64.4328 341.272 64.9942C344.043 68.9002 346.619 72.8469 349.009 76.7692L350.022 78.4455C350.362 78.988 350.694 79.5495 351.018 80.13L351.983 81.7981C352.307 82.3596 352.623 82.913 352.93 83.4663L353.854 85.0938C354.17 85.6472 354.47 86.2005 354.753 86.7213L355.637 88.3488C355.928 88.894 356.212 89.4474 356.495 89.9763L357.305 91.6038L358.116 93.2313C359.196 95.4013 360.203 97.5225 361.138 99.5948C361.608 100.653 362.077 101.702 362.523 102.736C364.54 107.391 366.266 111.842 367.676 115.984C367.679 116.003 367.679 116.022 367.676 116.041C367.814 116.439 367.943 116.854 368.073 117.221C368.202 117.587 368.34 118.034 368.47 118.425C368.599 118.816 368.672 119.035 368.761 119.344C368.907 119.8 369.053 120.256 369.191 120.72C369.329 121.184 369.491 121.712 369.628 122.209C369.896 123.12 370.155 124.032 370.439 124.951C370.649 125.724 370.852 126.497 371.046 127.278C371.046 127.425 371.127 127.563 371.16 127.71C371.192 127.856 371.216 127.954 371.249 128.076C371.362 128.532 371.476 128.987 371.581 129.451C371.872 130.664 372.14 131.892 372.391 133.105C372.529 133.772 372.666 134.431 372.788 135.099L372.861 135.473C372.985 136.097 373.099 136.723 373.201 137.353C373.347 138.166 373.485 139.037 373.606 139.875C373.712 140.51 373.801 141.153 373.89 141.796C373.89 141.885 373.89 141.983 373.93 142.081C373.987 142.504 374.044 142.894 374.092 143.366C374.141 143.838 374.182 144.082 374.222 144.432C374.368 145.726 374.497 147.012 374.603 148.306L374.676 149.185L374.773 150.657C374.773 151.203 374.838 151.748 374.862 152.285C374.862 152.708 374.903 153.099 374.919 153.546C374.919 154.165 374.959 154.791 374.967 155.41C374.975 156.028 375 156.997 375 157.721Z" fill="#52A713"/>
</g>
<path opacity="0.2" d="M10.7593 171.091C10.5971 170.985 10.6377 170.911 10.7593 171.091V171.091Z" fill="#263238"/>
<path opacity="0.2" d="M86.5353 163.913C86.0858 166.629 84.8963 169.167 83.0988 171.245C81.3012 173.323 78.9658 174.861 76.3513 175.688L74.3421 176.347C67.1153 186.625 54.444 190.995 43.6443 184.639L40.4846 182.776L31.6375 172.197H31.5321C28.7289 172.783 25.5611 172.352 23.4871 170.366C23.4049 170.803 23.2194 171.213 22.9462 171.562C22.673 171.911 22.3201 172.189 21.9174 172.372C21.5147 172.555 21.074 172.639 20.6325 172.615C20.191 172.591 19.7618 172.461 19.381 172.235C19.0002 172.009 18.679 171.695 18.4447 171.319C18.2103 170.942 18.0696 170.514 18.0345 170.072C17.9994 169.629 18.0709 169.184 18.2429 168.775C18.415 168.366 18.6825 168.005 19.023 167.722C17.2406 169.3 14.4859 168.576 12.7684 166.851C12.6943 162.11 13.2391 157.38 14.3887 152.781C15.0876 149.948 16.0031 147.173 17.1271 144.481C17.9836 142.436 18.9547 140.442 20.0357 138.508C20.1167 138.345 20.2139 138.174 20.3111 138.012C21.9202 135.179 23.7203 132.46 25.6988 129.874L26.7197 128.946C27.5299 128.239 28.2671 127.547 29.053 126.847L29.1988 126.717C30.4519 125.632 31.7239 124.547 33.0148 123.462C34.9997 121.794 37.0171 120.158 39.0506 118.53L39.2532 118.368C40.995 116.984 42.7531 115.609 44.5031 114.242L47.1443 112.191C47.6747 112.255 48.1964 112.378 48.6999 112.558C50.863 113.314 51.2357 115.308 52.7508 116.675C54.7438 118.506 56.6558 115.43 59.7264 115.528C69.165 115.821 65.503 125.545 70.1129 124.324C90.0191 119.051 86.673 144.627 78.0203 150.242C83.1244 154.449 87.5237 157.257 86.5353 163.913Z" fill="black"/>
<path d="M43.7335 188.228C62.2759 188.228 77.3074 173.316 77.3074 154.921C77.3074 136.526 62.2759 121.615 43.7335 121.615C25.1912 121.615 10.1597 136.526 10.1597 154.921C10.1597 173.316 25.1912 188.228 43.7335 188.228Z" fill="#FAFAFA" stroke="#263238" stroke-miterlimit="10"/>
<path d="M43.7336 183.948C60.6383 183.948 74.3422 170.351 74.3422 153.579C74.3422 136.806 60.6383 123.209 43.7336 123.209C26.8289 123.209 13.125 136.806 13.125 153.579C13.125 170.351 26.8289 183.948 43.7336 183.948Z" fill="#263238" stroke="#FAFAFA" stroke-miterlimit="10"/>
<path d="M10.8402 165.541C8.91197 166.745 8.36105 170.789 9.87609 172.547C11.3911 174.305 14.2997 172.946 14.8911 170.212C14.943 170.375 15.0399 170.521 15.1706 170.632C15.3013 170.742 15.4605 170.814 15.6299 170.838C15.7993 170.861 15.9719 170.837 16.1279 170.766C16.2838 170.696 16.4168 170.582 16.5115 170.439C16.6644 170.184 16.7545 169.896 16.7742 169.599C16.7939 169.302 16.7427 169.004 16.6249 168.731C16.4791 168.608 16.5358 168.519 16.6249 168.731C17.6133 169.544 19.3147 168.657 19.5496 166.973C18.8286 171.448 22.8795 175.354 25.8609 173.076C24.9778 174.98 26.1364 177.478 27.6757 177.958C29.2151 178.439 30.8679 177.527 32.3424 176.518C33.8169 175.509 35.332 174.345 36.9442 174.272C38.3458 174.207 39.6502 175.005 40.9951 175.477C45.2567 176.966 50.2474 174.988 53.5043 170.505C55.6594 174.207 60.9661 172.84 62.4163 168.234C62.716 170.391 64.1825 172.034 65.8271 172.051C67.4718 172.067 69.1165 170.472 69.6836 168.332C69.6836 170.374 71.5308 171.375 72.8271 170.065C73.7277 169.123 74.3727 167.965 74.7004 166.701C75.0281 165.438 75.0275 164.111 74.6986 162.847C76.9023 162.758 79.0412 160.186 79.3734 157.208C79.7055 154.23 78.2148 151.235 76.084 150.649C79.746 149.127 82.5655 144.139 82.7437 139.021C82.9219 133.902 80.2646 129.182 76.6755 127.994C75.9809 127.716 75.2202 127.65 74.4883 127.803C73.7564 127.957 73.0857 128.323 72.5597 128.857C72.1303 125.952 70.8178 123.356 68.8815 122.054C65.8028 119.963 61.517 121.395 59.2242 125.309C59.7766 124.263 60.0802 123.104 60.1111 121.92C60.142 120.737 59.8994 119.563 59.4024 118.49C58.3816 116.594 56.3561 115.829 54.6385 116.724C54.274 113.607 51.8758 111.394 49.5344 111.996C47.193 112.598 45.3053 115.935 45.4835 119.084C45.2648 116.545 42.2428 115.918 41.2058 118.05C41.1572 118.132 41.2949 118.246 41.2058 118.05C39.715 114.909 36.685 113.298 33.8736 114.218C30.8841 115.202 28.3725 118.97 27.9836 123.087C26.9762 122.171 25.6556 121.681 24.2971 121.719C22.9387 121.757 21.6472 122.32 20.692 123.291C18.4802 125.293 17.2001 129.101 17.589 132.502C15.2638 130.2 11.3506 131.461 9.75456 135.025C8.1585 138.589 9.25225 143.635 11.9501 145.132C10.0948 145.417 8.45827 147.89 8.45827 150.397C8.45827 152.903 10.0786 155.051 11.9664 154.986C10.0867 155.149 8.31244 157.379 8.03698 159.91C7.76152 162.44 9.0254 164.987 10.8402 165.541Z" fill="#262940"/>
<g opacity="0.2">
<path d="M41.6999 153.872C41.2701 153.475 40.7484 153.193 40.1825 153.051C39.6165 152.909 39.0241 152.911 38.4592 153.058C37.8266 153.306 37.2695 153.716 36.8432 154.247C36.4168 154.778 36.1361 155.411 36.0287 156.085C35.7694 157.558 36.45 159.185 37.568 159.462C38.9372 159.804 40.3388 158.266 41.7323 158.437C42.2227 158.553 42.7024 158.711 43.1664 158.909C45.1675 159.47 47.2173 157.664 48.8862 155.971C49.5328 155.389 50.0802 154.704 50.5066 153.945C50.7264 153.538 50.8587 153.09 50.895 152.629C50.9313 152.167 50.8707 151.704 50.7172 151.268C50.2311 150.169 49.0159 150.079 47.995 150.291C45.8076 150.79 43.8269 151.955 42.3238 153.627C42.3805 153.212 42.4372 152.814 42.502 152.391L41.6999 153.872Z" fill="#FAFAFA"/>
<path d="M70.9636 149.86C70.4727 149.376 69.8803 149.009 69.2298 148.786C68.8781 148.704 68.5095 148.739 68.1793 148.886C67.8492 149.033 67.5753 149.283 67.3988 149.599C67.1487 150.094 67.058 150.654 67.1393 151.202C67.2206 151.75 67.4699 152.259 67.8525 152.659C68.5708 153.247 69.4619 153.582 70.3884 153.611C71.312 153.733 72.4786 153.709 72.9566 152.626C73.1057 152.236 73.1482 151.814 73.0798 151.402C73.0114 150.989 72.8346 150.603 72.5678 150.283C72.0692 149.785 71.4488 149.429 70.7692 149.249L70.9636 149.86Z" fill="#FAFAFA"/>
<path d="M25.156 133.235C24.1454 133.912 23.2835 134.79 22.6231 135.815C21.9627 136.839 21.5178 137.988 21.3157 139.192C21.1699 139.956 21.1699 140.917 21.6884 141.291C21.8822 141.393 22.0976 141.446 22.3163 141.446C22.535 141.446 22.7505 141.393 22.9442 141.291L28.3238 139.338C27.4099 139.774 26.5855 140.379 25.8933 141.12C25.516 141.553 25.2343 142.061 25.0667 142.61C24.8991 143.16 24.8495 143.74 24.921 144.31C25.0087 144.885 25.306 145.406 25.7552 145.773C26.2044 146.14 26.7734 146.326 27.3516 146.296C28.5038 146.083 29.5511 145.486 30.3249 144.603C31.4096 143.692 32.1007 142.394 32.2532 140.982C32.2532 139.517 30.8759 138.239 29.9766 139.232C32.1066 138.335 34.0643 137.071 35.7613 135.497C36.4562 134.915 37.0314 134.201 37.4545 133.398C37.6801 132.971 37.8159 132.502 37.8535 132.021C37.8911 131.539 37.8298 131.055 37.6733 130.598C35.9233 126.456 33.5008 132.836 32.3666 133.463C30.2358 134.651 27.8863 131.624 25.156 133.235Z" fill="#FAFAFA"/>
<path d="M16.5033 151.91C16.382 152.307 16.3577 152.727 16.4324 153.135C16.5072 153.543 16.6788 153.927 16.9327 154.254C17.0694 154.374 17.2346 154.456 17.4123 154.493C17.59 154.53 17.7742 154.52 17.947 154.464C18.1198 154.409 18.2754 154.309 18.3986 154.175C18.5218 154.042 18.6085 153.878 18.6503 153.701C17.3306 154.17 16.1951 155.051 15.4095 156.215C14.5994 157.55 14.7857 159.787 15.9686 160.211C16.7058 160.479 17.4998 159.958 18.1966 159.438C20.2006 157.926 22.0783 156.252 23.8111 154.433C23.6908 154.787 23.6487 155.163 23.6878 155.534C23.7269 155.906 23.8463 156.265 24.0376 156.586C24.2288 156.906 24.4874 157.181 24.7953 157.391C25.1032 157.601 25.453 157.742 25.8204 157.802C27.1491 157.867 28.4129 156.874 29.5715 155.914C30.9893 154.734 32.6259 152.976 32.2937 150.958C32.2359 150.584 32.0923 150.229 31.8743 149.92C31.6562 149.611 31.3697 149.358 31.0373 149.179C30.7049 149.001 30.3357 148.903 29.959 148.892C29.5823 148.882 29.2083 148.96 28.8666 149.119C27.4893 149.73 26.4361 151.202 25.4558 152.618C26.266 151.17 25.2046 149.16 23.8921 149.013C22.5796 148.867 21.332 149.941 20.5137 151.194C22.0206 150.055 22.4014 147.313 20.4165 147.126C19.104 146.995 16.8436 150.535 16.5033 151.91Z" fill="#FAFAFA"/>
<path d="M57.4498 143.285C56.3317 142.813 54.9058 143.838 54.5817 145.343C54.2577 146.849 55.0921 148.493 56.2669 148.647C55.7954 148.75 55.3494 148.947 54.9555 149.226C54.5615 149.506 54.2278 149.863 53.9741 150.275C53.6226 150.785 53.4437 151.396 53.4637 152.016C53.503 152.411 53.6844 152.777 53.9739 153.047C54.2633 153.317 54.6408 153.471 55.0354 153.481C55.8002 153.38 56.5244 153.077 57.1338 152.602C56.3677 152.665 55.6427 152.976 55.0678 153.489C54.7597 153.806 54.5599 154.214 54.4972 154.653C54.4346 155.091 54.5124 155.539 54.7195 155.93C55.1407 156.451 55.8456 156.313 56.4289 156.069C57.8194 155.463 59.0386 154.521 59.9775 153.326C60.2648 153.828 60.6961 154.231 61.2151 154.482C61.7341 154.733 62.3165 154.821 62.8861 154.734C63.4994 154.493 64.009 154.043 64.3259 153.463C64.6428 152.883 64.7468 152.21 64.6199 151.56C64.5251 151.143 64.302 150.766 63.9821 150.482C63.6623 150.199 63.2618 150.024 62.8375 149.982C62.0199 149.977 61.2154 150.187 60.5041 150.592C61.3907 149.876 62.0565 148.923 62.4243 147.842C62.724 146.67 62.1407 145.164 61.2009 145.311C60.1396 145.482 59.5805 147.361 58.7217 148.078C57.709 146.914 59.6859 144.22 57.4498 143.285Z" fill="#FAFAFA"/>
<path d="M38.4834 138.817C37.2681 139.932 36.8063 142.015 36.863 143.87C36.9116 145.921 37.6003 148.069 39.0586 148.802C40.9706 149.762 43.4255 147.557 43.8306 144.871C44.023 143.645 43.8656 142.388 43.3767 141.248C42.8878 140.107 42.0873 139.129 41.0679 138.426C40.6477 138.224 40.1766 138.153 39.7158 138.223C39.255 138.292 38.8256 138.499 38.4834 138.817Z" fill="#FAFAFA"/>
<path d="M52.0297 135.774L52.5158 136.295C52.3328 135.998 52.0802 135.751 51.7801 135.575C51.4799 135.399 51.1414 135.3 50.7943 135.287C50.4471 135.273 50.102 135.345 49.7891 135.497C49.4761 135.648 49.205 135.875 48.9996 136.156C48.5121 136.804 48.2403 137.59 48.2228 138.403C48.2054 139.215 48.4431 140.012 48.9024 140.681C49.1458 140.932 49.4455 141.122 49.7766 141.234C50.1077 141.346 50.4606 141.377 50.8061 141.325C51.1516 141.272 51.4795 141.138 51.7628 140.932C52.0461 140.727 52.2764 140.456 52.4347 140.144C53.1707 140.51 54.0176 140.581 54.8042 140.344C55.5907 140.107 56.2583 139.579 56.672 138.866C57.6847 137.295 57.4822 134.659 56.194 133.772C54.9058 132.885 52.8074 134.464 52.9533 136.417L52.3861 135.603L52.0297 135.774Z" fill="#FAFAFA"/>
<path d="M66.8803 137.938C65.7819 139.173 64.9711 140.638 64.5064 142.227C64.1257 143.911 64.6604 145.986 65.9567 146.295C67.2529 146.605 68.4844 145.197 69.2541 143.732C70.0476 142.415 70.3544 140.859 70.121 139.338C69.7645 137.898 68.136 137.133 67.2935 138.313L66.8803 137.938Z" fill="#FAFAFA"/>
<path d="M45.5805 129.239C45.492 128.938 45.3295 128.664 45.108 128.443C44.8865 128.221 44.6131 128.059 44.3129 127.972C44.0128 127.884 43.6955 127.874 43.3903 127.942C43.0852 128.01 42.8019 128.154 42.5667 128.36C42.0526 128.887 41.6872 129.541 41.5078 130.256C41.3285 130.971 41.3416 131.721 41.5458 132.429C41.7081 133.053 42.054 133.612 42.5383 134.035C43.0226 134.457 43.6227 134.723 44.2599 134.797C44.6759 134.791 45.0859 134.697 45.4637 134.522C45.8415 134.347 46.1789 134.095 46.4541 133.782C46.7294 133.469 46.9366 133.101 47.0624 132.703C47.1882 132.305 47.2298 131.884 47.1847 131.469C47.4671 131.933 47.8867 132.297 48.3848 132.51C48.883 132.723 49.4349 132.774 49.9636 132.657C51.0528 132.368 52.0598 131.827 52.9046 131.078C54.1522 130.094 55.489 128.637 55.3918 126.806C55.3811 126.18 55.1458 125.578 54.7291 125.112C54.3124 124.645 53.7423 124.346 53.1233 124.267C52.5119 124.297 51.9145 124.462 51.3739 124.75C50.8333 125.039 50.3628 125.443 49.996 125.936C49.3074 126.709 48.7321 127.661 47.9868 128.377C47.2414 129.093 46.2449 129.475 45.4752 128.987L45.5805 129.239Z" fill="#FAFAFA"/>
</g>
<path d="M289.631 179.643H102.747V258.699H289.631V179.643Z" fill="#262940" stroke="#263238" stroke-linecap="round" stroke-linejoin="round"/>
<path d="M124.233 184.42H106.652V194.193H124.233V184.42Z" fill="#E6E6E6" stroke="#263238" stroke-miterlimit="10"/>
<path d="M285.305 232.081H257.613V241.854H285.305V232.081Z" fill="#E6E6E6" stroke="#263238" stroke-miterlimit="10"/>
<path d="M285.305 196.634H268.21V206.407H285.305V196.634Z" fill="#E6E6E6" stroke="#263238" stroke-miterlimit="10"/>
<path d="M124.233 220.021H106.652V229.794H124.233V220.021Z" fill="#E6E6E6" stroke="#263238" stroke-miterlimit="10"/>
<path d="M120.887 208.254H106.652V218.027H120.887V208.254Z" fill="#E6E6E6" stroke="#263238" stroke-miterlimit="10"/>
<path d="M116.382 196.333H106.652V206.106H116.382V196.333Z" fill="#E6E6E6" stroke="#263238" stroke-miterlimit="10"/>
<path d="M128.811 196.333H119.08V206.106H128.811V196.333Z" fill="#E6E6E6" stroke="#263238" stroke-miterlimit="10"/>
<path d="M141.231 196.333H131.5V206.106H141.231V196.333Z" fill="#E6E6E6" stroke="#263238" stroke-miterlimit="10"/>
<path d="M153.651 196.333H143.92V206.106H153.651V196.333Z" fill="#E6E6E6" stroke="#263238" stroke-miterlimit="10"/>
<path d="M166.079 196.333H156.349V206.106H166.079V196.333Z" fill="#E6E6E6" stroke="#263238" stroke-miterlimit="10"/>
<path d="M178.499 196.333H168.769V206.106H178.499V196.333Z" fill="#E6E6E6" stroke="#263238" stroke-miterlimit="10"/>
<path d="M190.919 196.333H181.189V206.106H190.919V196.333Z" fill="#E6E6E6" stroke="#263238" stroke-miterlimit="10"/>
<path d="M203.347 196.333H193.617V206.106H203.347V196.333Z" fill="#E6E6E6" stroke="#263238" stroke-miterlimit="10"/>
<path d="M215.767 196.333H206.037V206.106H215.767V196.333Z" fill="#E6E6E6" stroke="#263238" stroke-miterlimit="10"/>
<path d="M228.187 196.333H218.457V206.106H228.187V196.333Z" fill="#E6E6E6" stroke="#263238" stroke-miterlimit="10"/>
<path d="M240.615 196.333H230.885V206.106H240.615V196.333Z" fill="#E6E6E6" stroke="#263238" stroke-miterlimit="10"/>
<path d="M253.035 196.333H243.305V206.106H253.035V196.333Z" fill="#E6E6E6" stroke="#263238" stroke-miterlimit="10"/>
<path d="M265.464 196.333H255.733V206.106H265.464V196.333Z" fill="#E6E6E6" stroke="#263238" stroke-miterlimit="10"/>
<path d="M116.382 244.133H106.652V253.906H116.382V244.133Z" fill="#E6E6E6" stroke="#263238" stroke-miterlimit="10"/>
<path d="M128.811 244.133H119.08V253.906H128.811V244.133Z" fill="#E6E6E6" stroke="#263238" stroke-miterlimit="10"/>
<path d="M141.231 244.133H131.5V253.906H141.231V244.133Z" fill="#E6E6E6" stroke="#263238" stroke-miterlimit="10"/>
<path d="M155.798 244.133H143.92V253.906H155.798V244.133Z" fill="#E6E6E6" stroke="#263238" stroke-miterlimit="10"/>
<path d="M217.914 244.133H158.488V253.906H217.914V244.133Z" fill="#E6E6E6" stroke="#263238" stroke-miterlimit="10"/>
<path d="M247.624 244.133H237.893V253.906H247.624V244.133Z" fill="#E6E6E6" stroke="#263238" stroke-miterlimit="10"/>
<path d="M260.044 244.133H250.313V253.906H260.044V244.133Z" fill="#E6E6E6" stroke="#263238" stroke-miterlimit="10"/>
<path d="M272.488 244.133H262.758V253.906H272.488V244.133Z" fill="#E6E6E6" stroke="#263238" stroke-miterlimit="10"/>
<path d="M235.455 244.133H220.345V253.906H235.455V244.133Z" fill="#E6E6E6" stroke="#263238" stroke-miterlimit="10"/>
<path d="M285.305 244.133H275.575V253.906H285.305V244.133Z" fill="#E6E6E6" stroke="#263238" stroke-miterlimit="10"/>
<path d="M133.38 208.254H123.65V218.027H133.38V208.254Z" fill="#E6E6E6" stroke="#263238" stroke-miterlimit="10"/>
<path d="M145.8 208.254H136.07V218.027H145.8V208.254Z" fill="#E6E6E6" stroke="#263238" stroke-miterlimit="10"/>
<path d="M158.228 208.254H148.498V218.027H158.228V208.254Z" fill="#E6E6E6" stroke="#263238" stroke-miterlimit="10"/>
<path d="M170.648 208.254H160.918V218.027H170.648V208.254Z" fill="#E6E6E6" stroke="#263238" stroke-miterlimit="10"/>
<path d="M183.068 208.254H173.338V218.027H183.068V208.254Z" fill="#E6E6E6" stroke="#263238" stroke-miterlimit="10"/>
<path d="M195.496 208.254H185.766V218.027H195.496V208.254Z" fill="#E6E6E6" stroke="#263238" stroke-miterlimit="10"/>
<path d="M207.917 208.254H198.186V218.027H207.917V208.254Z" fill="#E6E6E6" stroke="#263238" stroke-miterlimit="10"/>
<path d="M220.345 208.254H210.615V218.027H220.345V208.254Z" fill="#E6E6E6" stroke="#263238" stroke-miterlimit="10"/>
<path d="M232.765 208.254H223.034V218.027H232.765V208.254Z" fill="#E6E6E6" stroke="#263238" stroke-miterlimit="10"/>
<path d="M245.185 208.254H235.455V218.027H245.185V208.254Z" fill="#E6E6E6" stroke="#263238" stroke-miterlimit="10"/>
<path d="M257.613 208.254H247.883V218.027H257.613V208.254Z" fill="#E6E6E6" stroke="#263238" stroke-miterlimit="10"/>
<path d="M270.033 208.254H260.303V218.027H270.033V208.254Z" fill="#E6E6E6" stroke="#263238" stroke-miterlimit="10"/>
<path d="M285.305 208.254V229.941H275.575V218.028H272.723V208.254H285.305Z" fill="#E6E6E6" stroke="#263238" stroke-miterlimit="10"/>
<path d="M136.232 220.168H126.501V229.941H136.232V220.168Z" fill="#E6E6E6" stroke="#263238" stroke-miterlimit="10"/>
<path d="M148.652 220.168H138.922V229.941H148.652V220.168Z" fill="#E6E6E6" stroke="#263238" stroke-miterlimit="10"/>
<path d="M161.072 220.168H151.342V229.941H161.072V220.168Z" fill="#E6E6E6" stroke="#263238" stroke-miterlimit="10"/>
<path d="M173.5 220.168H163.77V229.941H173.5V220.168Z" fill="#E6E6E6" stroke="#263238" stroke-miterlimit="10"/>
<path d="M185.92 220.168H176.19V229.941H185.92V220.168Z" fill="#E6E6E6" stroke="#263238" stroke-miterlimit="10"/>
<path d="M198.348 220.168H188.618V229.941H198.348V220.168Z" fill="#E6E6E6" stroke="#263238" stroke-miterlimit="10"/>
<path d="M210.768 220.168H201.038V229.941H210.768V220.168Z" fill="#E6E6E6" stroke="#263238" stroke-miterlimit="10"/>
<path d="M223.189 220.168H213.458V229.941H223.189V220.168Z" fill="#E6E6E6" stroke="#263238" stroke-miterlimit="10"/>
<path d="M235.617 220.168H225.886V229.941H235.617V220.168Z" fill="#E6E6E6" stroke="#263238" stroke-miterlimit="10"/>
<path d="M248.037 220.168H238.306V229.941H248.037V220.168Z" fill="#E6E6E6" stroke="#263238" stroke-miterlimit="10"/>
<path d="M260.457 220.168H250.727V229.941H260.457V220.168Z" fill="#E6E6E6" stroke="#263238" stroke-miterlimit="10"/>
<path d="M272.885 220.168H263.155V229.941H272.885V220.168Z" fill="#E6E6E6" stroke="#263238" stroke-miterlimit="10"/>
<path d="M130.95 232.081H121.219V241.854H130.95V232.081Z" fill="#E6E6E6" stroke="#263238" stroke-miterlimit="10"/>
<path d="M143.369 232.081H133.639V241.854H143.369V232.081Z" fill="#E6E6E6" stroke="#263238" stroke-miterlimit="10"/>
<path d="M155.798 232.081H146.067V241.854H155.798V232.081Z" fill="#E6E6E6" stroke="#263238" stroke-miterlimit="10"/>
<path d="M168.218 232.081H158.488V241.854H168.218V232.081Z" fill="#E6E6E6" stroke="#263238" stroke-miterlimit="10"/>
<path d="M180.638 232.081H170.907V241.854H180.638V232.081Z" fill="#E6E6E6" stroke="#263238" stroke-miterlimit="10"/>
<path d="M193.066 232.081H183.336V241.854H193.066V232.081Z" fill="#E6E6E6" stroke="#263238" stroke-miterlimit="10"/>
<path d="M205.486 232.081H195.756V241.854H205.486V232.081Z" fill="#E6E6E6" stroke="#263238" stroke-miterlimit="10"/>
<path d="M217.914 232.081H208.184V241.854H217.914V232.081Z" fill="#E6E6E6" stroke="#263238" stroke-miterlimit="10"/>
<path d="M230.334 232.081H220.604V241.854H230.334V232.081Z" fill="#E6E6E6" stroke="#263238" stroke-miterlimit="10"/>
<path d="M242.754 232.081H233.024V241.854H242.754V232.081Z" fill="#E6E6E6" stroke="#263238" stroke-miterlimit="10"/>
<path d="M255.182 232.081H245.452V241.854H255.182V232.081Z" fill="#E6E6E6" stroke="#263238" stroke-miterlimit="10"/>
<path d="M136.232 185.014H126.501V194.787H136.232V185.014Z" fill="#E6E6E6" stroke="#263238" stroke-miterlimit="10"/>
<path d="M148.652 185.014H138.922V194.787H148.652V185.014Z" fill="#E6E6E6" stroke="#263238" stroke-miterlimit="10"/>
<path d="M161.072 185.014H151.342V194.787H161.072V185.014Z" fill="#E6E6E6" stroke="#263238" stroke-miterlimit="10"/>
<path d="M173.5 185.014H163.77V194.787H173.5V185.014Z" fill="#E6E6E6" stroke="#263238" stroke-miterlimit="10"/>
<path d="M185.92 185.014H176.19V194.787H185.92V185.014Z" fill="#E6E6E6" stroke="#263238" stroke-miterlimit="10"/>
<path d="M198.348 185.014H188.618V194.787H198.348V185.014Z" fill="#E6E6E6" stroke="#263238" stroke-miterlimit="10"/>
<path d="M210.768 185.014H201.038V194.787H210.768V185.014Z" fill="#E6E6E6" stroke="#263238" stroke-miterlimit="10"/>
<path d="M223.189 185.014H213.458V194.787H223.189V185.014Z" fill="#E6E6E6" stroke="#263238" stroke-miterlimit="10"/>
<path d="M235.617 185.014H225.886V194.787H235.617V185.014Z" fill="#E6E6E6" stroke="#263238" stroke-miterlimit="10"/>
<path d="M248.037 185.014H238.306V194.787H248.037V185.014Z" fill="#E6E6E6" stroke="#263238" stroke-miterlimit="10"/>
<path d="M260.457 185.014H250.727V194.787H260.457V185.014Z" fill="#E6E6E6" stroke="#263238" stroke-miterlimit="10"/>
<path d="M272.885 185.014H263.155V194.787H272.885V185.014Z" fill="#E6E6E6" stroke="#263238" stroke-miterlimit="10"/>
<path d="M285.305 185.014H275.575V194.787H285.305V185.014Z" fill="#E6E6E6" stroke="#263238" stroke-miterlimit="10"/>
<path d="M118.44 232.081H106.652V241.854H118.44V232.081Z" fill="#E6E6E6" stroke="#263238" stroke-miterlimit="10"/>
<path d="M102.747 180.148L106.652 178.837H287.095L289.664 180.131L102.747 180.148Z" fill="#263238"/>
<path opacity="0.2" d="M236.143 315.726L232.343 292.737C231.505 289.311 229.722 286.192 227.199 283.737C219.64 276.414 209.65 268.895 209.221 259.325C208.565 244.677 206.288 245.093 206.531 241.471C207.518 239.742 208.387 237.948 209.132 236.101C209.602 234.68 209.97 233.228 210.234 231.755C210.388 231.032 210.806 230.393 211.406 229.964C212.005 229.535 212.743 229.346 213.474 229.436C214.501 229.572 215.46 230.024 216.221 230.73C217.558 232.162 218.295 234.056 218.279 236.019C218.255 237.961 217.983 239.892 217.468 241.764C218.74 245.001 219.558 248.4 219.899 251.863C220.766 249.178 221.422 246.468 222.289 243.791C222.467 243.693 222.402 243.481 222.573 243.384C221.349 240.747 222.386 240.894 219.964 235.092C215.913 225.327 211.343 215.912 208.095 203.64C207.831 202.502 207.856 201.316 208.168 200.19C209.342 196.683 212.94 197.488 214.511 199.531C214.922 200.07 215.25 200.668 215.483 201.305C217.617 206.531 220.212 211.556 223.237 216.318L232.06 229.827C232.06 229.827 235.13 227.296 235.6 226.165C236.062 225.025 236.289 215.855 236.289 215.855C236.289 215.855 235.592 217.572 234.045 217.482C232.927 217.401 230.658 218.052 229.046 216.229C228.42 215.492 228.064 214.562 228.038 213.594C228.011 212.626 228.315 211.677 228.9 210.907L232.894 205.487C233.769 204.794 234.817 204.357 235.924 204.224C237.03 204.09 238.152 204.266 239.165 204.731C241.744 206.034 244.121 207.706 246.222 209.694C248.331 209.635 250.427 210.04 252.363 210.883C255.19 212.25 258.156 216.172 258.156 216.172C258.156 216.172 261.453 216.375 262.936 217.458C263.308 217.726 268.34 225.595 266.525 231.723C265.447 235.376 264.783 240.674 264.297 242.106L261.826 277.984L266.808 301.583L256.155 307.548C252.263 309.727 248.188 311.56 243.978 313.024L236.143 315.726Z" fill="black"/>
<path d="M266.395 273.802L266.493 237.826C266.882 236.377 267.197 231.039 268.024 227.32C269.434 221.087 263.892 213.568 263.503 213.324C261.948 212.355 258.642 212.372 258.642 212.372C258.642 212.372 255.401 208.653 252.509 207.489C250.524 206.767 248.406 206.489 246.303 206.675C244.076 204.828 241.592 203.318 238.93 202.192C237.888 201.796 236.758 201.696 235.664 201.903C234.569 202.11 233.552 202.615 232.724 203.364L229.103 209.06C228.569 209.868 228.326 210.835 228.416 211.8C228.506 212.766 228.923 213.671 229.597 214.365C231.331 216.082 233.551 215.277 234.669 215.277C236.216 215.277 236.8 213.519 236.8 213.519C236.8 213.519 237.18 222.682 236.8 223.846C236.403 225.009 233.502 227.735 233.502 227.735L223.78 214.854C220.441 210.307 217.52 205.464 215.054 200.385C214.775 199.767 214.406 199.194 213.961 198.684C212.259 196.748 208.621 196.186 207.674 199.759C207.44 200.904 207.493 202.089 207.827 203.209C211.878 215.236 217.047 224.326 221.754 233.798C224.55 239.421 223.513 239.356 224.906 241.894C224.744 242.008 224.825 242.22 224.647 242.326C223.966 245.06 223.488 247.802 222.8 250.536C222.229 247.104 221.185 243.768 219.697 240.625C220.09 238.721 220.234 236.773 220.126 234.831C220.004 232.869 219.134 231.03 217.695 229.696C216.89 229.042 215.902 228.655 214.868 228.59C214.126 228.541 213.394 228.776 212.817 229.247C212.24 229.717 211.861 230.39 211.757 231.129C211.594 232.614 211.324 234.085 210.947 235.531C210.326 237.424 209.579 239.273 208.711 241.064C208.711 244.694 210.947 244.1 212.575 258.698C213.839 270.091 228.422 277.585 236.362 285.796L244.82 312.536C254.722 308.514 264.208 303.529 273.144 297.652L266.395 273.802Z" fill="#FAFAFA"/>
<path d="M262.247 224.92C262.597 223.828 263.239 222.854 264.102 222.104C264.546 221.745 265.104 221.557 265.674 221.577C266.243 221.596 266.787 221.821 267.205 222.21C266.601 220.349 265.958 218.497 265.277 216.652C264.871 215.207 264.094 213.894 263.025 212.844C261.874 211.9 259.979 211.704 258.974 212.844C259.677 217.098 259.754 221.433 259.201 225.709C258.901 228.02 258.512 230.673 260.06 232.406C260.489 232.756 261.234 232.13 260.959 231.649C260.829 231.422 260.376 231.405 260.149 231.422C260.668 229.2 261.37 227.025 262.247 224.92Z" fill="#262940"/>
<path d="M262.247 224.92C262.597 223.828 263.239 222.854 264.102 222.104C264.546 221.745 265.104 221.557 265.674 221.577C266.243 221.596 266.787 221.821 267.205 222.21C266.601 220.349 265.958 218.497 265.277 216.652C264.871 215.207 264.094 213.894 263.025 212.844C261.874 211.9 259.979 211.704 258.974 212.844C259.677 217.098 259.754 221.433 259.201 225.709C258.901 228.02 258.512 230.673 260.06 232.406C260.489 232.756 261.234 232.13 260.959 231.649C260.829 231.422 260.376 231.405 260.149 231.422C260.668 229.2 261.37 227.025 262.247 224.92Z" fill="#262940"/>
<path opacity="0.5" d="M262.247 224.92C262.597 223.828 263.239 222.854 264.102 222.104C264.546 221.745 265.104 221.557 265.674 221.577C266.243 221.596 266.787 221.821 267.205 222.21C266.601 220.349 265.958 218.497 265.277 216.652C264.871 215.207 264.094 213.894 263.025 212.844C261.874 211.9 259.979 211.704 258.974 212.844C259.677 217.098 259.754 221.433 259.201 225.709C258.901 228.02 258.512 230.673 260.06 232.406C260.489 232.756 261.234 232.13 260.959 231.649C260.829 231.422 260.376 231.405 260.149 231.422C260.668 229.2 261.37 227.025 262.247 224.92Z" fill="white"/>
<path d="M249.317 221.063C249.304 222.631 249.45 224.196 249.754 225.734C249.912 226.502 250.223 227.231 250.668 227.876C251.114 228.521 251.685 229.068 252.347 229.485C251.537 226.458 251.974 223.244 252.412 220.143L253.222 214.447C253.262 213.781 253.459 213.134 253.797 212.559C253.97 212.277 254.234 212.062 254.544 211.95C254.855 211.837 255.194 211.834 255.507 211.941C254.696 212.413 253.667 211.778 253.181 210.98C252.817 210.121 252.403 209.284 251.942 208.474C250.856 207.074 248.539 206.765 246.935 207.139C247.413 211.818 249.13 216.262 249.317 221.063Z" fill="#262940"/>
<path d="M249.317 221.063C249.304 222.631 249.45 224.196 249.754 225.734C249.912 226.502 250.223 227.231 250.668 227.876C251.114 228.521 251.685 229.068 252.347 229.485C251.537 226.458 251.974 223.244 252.412 220.143L253.222 214.447C253.262 213.781 253.459 213.134 253.797 212.559C253.97 212.277 254.234 212.062 254.544 211.95C254.855 211.837 255.194 211.834 255.507 211.941C254.696 212.413 253.667 211.778 253.181 210.98C252.817 210.121 252.403 209.284 251.942 208.474C250.856 207.074 248.539 206.765 246.935 207.139C247.413 211.818 249.13 216.262 249.317 221.063Z" fill="#262940"/>
<g opacity="0.5">
<path d="M249.317 221.063C249.304 222.631 249.45 224.196 249.754 225.734C249.912 226.502 250.223 227.231 250.668 227.876C251.114 228.521 251.685 229.068 252.347 229.485C251.537 226.458 251.974 223.244 252.412 220.143L253.222 214.447C253.262 213.781 253.459 213.134 253.797 212.559C253.97 212.277 254.234 212.062 254.544 211.95C254.855 211.837 255.194 211.834 255.507 211.941C254.696 212.413 253.667 211.778 253.181 210.98C252.817 210.121 252.403 209.284 251.942 208.474C250.856 207.074 248.539 206.765 246.935 207.139C247.413 211.818 249.13 216.262 249.317 221.063Z" fill="white"/>
</g>
<path d="M236.095 208.515C235.621 208.061 235.318 207.458 235.236 206.806C235.193 206.485 235.087 206.176 234.925 205.896C234.762 205.617 234.545 205.373 234.288 205.178C231.801 206.765 233.162 211.412 230.642 212.95C230.156 213.251 229.532 213.421 229.265 213.926C229.16 214.164 229.129 214.428 229.177 214.684C229.225 214.94 229.349 215.175 229.532 215.358C229.91 215.718 230.393 215.946 230.909 216.009C231.919 216.15 232.947 216.008 233.882 215.601C234.816 215.193 235.621 214.535 236.208 213.698C237.196 212.331 237.877 210.134 237.391 208.515C237.196 208.634 236.971 208.697 236.743 208.697C236.514 208.697 236.29 208.634 236.095 208.515Z" fill="#262940"/>
<path d="M210.226 238.941C210.226 239.111 210.153 239.331 210.29 239.445C210.428 239.559 210.785 239.347 210.947 239.12C211.485 238.383 212.239 237.835 213.105 237.553C213.97 237.271 214.901 237.27 215.767 237.549C216.423 237.549 216.65 236.532 216.221 236.035C215.976 235.815 215.688 235.65 215.376 235.549C215.063 235.448 214.733 235.414 214.406 235.45C213.752 235.525 213.09 235.415 212.494 235.132C212.164 234.917 211.908 234.604 211.763 234.237C211.618 233.869 211.59 233.466 211.684 233.082C211.271 235.043 210.76 236.988 210.226 238.941Z" fill="#262940"/>
<g opacity="0.5">
<path d="M236.095 208.515C235.621 208.061 235.318 207.458 235.236 206.806C235.193 206.485 235.087 206.176 234.925 205.896C234.762 205.617 234.545 205.373 234.288 205.178C231.801 206.765 233.162 211.412 230.642 212.95C230.156 213.251 229.532 213.421 229.265 213.926C229.16 214.164 229.129 214.428 229.177 214.684C229.225 214.94 229.349 215.175 229.532 215.358C229.91 215.718 230.393 215.946 230.909 216.009C231.919 216.15 232.947 216.008 233.882 215.601C234.816 215.193 235.621 214.535 236.208 213.698C237.196 212.331 237.877 210.134 237.391 208.515C237.196 208.634 236.971 208.697 236.743 208.697C236.514 208.697 236.29 208.634 236.095 208.515Z" fill="white"/>
<path d="M210.226 238.941C210.226 239.111 210.153 239.331 210.29 239.445C210.428 239.559 210.785 239.347 210.947 239.12C211.485 238.383 212.239 237.835 213.105 237.553C213.97 237.271 214.901 237.27 215.767 237.549C216.423 237.549 216.65 236.532 216.221 236.035C215.976 235.815 215.688 235.65 215.376 235.549C215.063 235.448 214.733 235.414 214.406 235.45C213.752 235.525 213.09 235.415 212.494 235.132C212.164 234.917 211.908 234.604 211.763 234.237C211.618 233.869 211.59 233.466 211.684 233.082C211.271 235.043 210.76 236.988 210.226 238.941Z" fill="white"/>
</g>
<path d="M243.216 207.896C241.798 207.709 240.299 207.668 239.06 206.944C237.521 206.033 236.459 204.096 234.669 204.014C233.048 203.941 231.89 205.406 230.99 206.724C230.999 205.726 231.309 204.754 231.879 203.936C232.449 203.118 233.252 202.493 234.183 202.143C236.073 201.481 238.142 201.563 239.975 202.371C241.785 203.185 243.475 204.245 244.998 205.52C245.656 205.958 246.232 206.509 246.7 207.147C248.701 210.345 244.464 208.067 243.216 207.896Z" fill="#262940"/>
<path opacity="0.5" d="M243.216 207.896C241.798 207.709 240.299 207.668 239.06 206.944C237.521 206.033 236.459 204.096 234.669 204.014C233.048 203.941 231.89 205.406 230.99 206.724C230.999 205.726 231.309 204.754 231.879 203.936C232.449 203.118 233.252 202.493 234.183 202.143C236.073 201.481 238.142 201.563 239.975 202.371C241.785 203.185 243.475 204.245 244.998 205.52C245.656 205.958 246.232 206.509 246.7 207.147C248.701 210.345 244.464 208.067 243.216 207.896Z" fill="white"/>
<path d="M217.874 254.109C217.97 253.932 218.056 253.75 218.133 253.564C218.047 253.625 217.978 253.707 217.932 253.802C217.887 253.898 217.867 254.003 217.874 254.109Z" fill="#262940"/>
<path d="M220.28 241.504C220.118 239.502 220.402 237.484 220.321 235.474C220.24 233.464 219.713 231.348 218.255 229.965C216.164 227.988 210.436 228.997 212.356 232.756C212.637 233.269 213.091 233.664 213.637 233.868C214.183 234.073 214.783 234.074 215.33 233.871C215.591 233.748 215.824 233.573 216.017 233.358C216.21 233.142 216.358 232.89 216.452 232.616C216.546 232.343 216.585 232.053 216.567 231.764C216.548 231.475 216.472 231.192 216.343 230.933C217.469 232.725 218.025 234.818 217.936 236.935C217.848 239.052 217.12 241.091 215.848 242.782C217.304 244.113 218.307 245.87 218.717 247.804C219.127 249.738 218.923 251.752 218.133 253.564C218.33 253.428 218.563 253.356 218.801 253.356C219.04 253.356 219.273 253.428 219.47 253.564C219.968 254.075 220.323 254.71 220.499 255.403C220.782 256.062 221.309 256.746 222.022 256.697C222.994 254.296 222.678 251.57 222.022 249.064C221.366 246.557 220.483 244.116 220.28 241.504Z" fill="#262940"/>
<path d="M241.239 203.771C240.125 202.902 238.804 202.341 237.407 202.143L241.239 203.771Z" fill="#262940"/>
<path d="M250.767 229.233C250.459 227.849 249.819 226.563 249.438 225.164C248.555 221.982 249.114 218.581 248.709 215.301C248.157 211.018 246.006 207.106 242.689 204.356L241.239 203.738C242.644 204.806 243.667 206.302 244.156 208.002C245.282 211.892 245.63 215.944 246.133 219.964C246.894 226.176 248.017 232.339 249.495 238.42C250.459 235.425 251.439 232.284 250.767 229.233Z" fill="#262940"/>
<path d="M235.341 214.764C236.313 213.908 236.924 212.712 237.051 211.42C237.163 210.276 237.133 209.122 236.962 207.986C236.878 208.248 236.702 208.472 236.466 208.614C236.231 208.756 235.952 208.807 235.681 208.759C235.016 208.499 234.47 208 234.15 207.359L233.859 208.376L233.737 207.823L233.348 208.319C233.923 209.947 234.482 211.843 233.591 213.332C233.111 214.021 232.489 214.598 231.768 215.025C232.316 215.361 232.956 215.517 233.596 215.47C234.237 215.423 234.847 215.177 235.341 214.764Z" fill="#262940"/>
<path d="M236.913 207.579L236.961 207.986C236.989 207.848 236.972 207.706 236.913 207.579Z" fill="#262940"/>
<path d="M232.676 224.049C229.84 218.442 227.004 212.836 223.869 207.383C222.12 204.149 220.046 201.104 217.679 198.294C216.594 197.081 213.499 194.266 211.789 196.121C210.647 197.358 212.146 199.604 210.744 200.947C211.068 200.947 212.648 200.792 212.818 201.004C216.395 205.472 218.317 211.049 218.255 216.782C219.397 215.879 220.969 217.132 221.86 218.288C227.359 225.372 232.497 232.733 237.253 240.34C236.33 236.979 236.305 233.407 235.317 230.071C234.618 227.988 233.734 225.973 232.676 224.049Z" fill="#262940"/>
<path d="M265.683 237.712C267.131 234.121 267.988 230.317 268.218 226.45C268.374 222.875 267.49 219.332 265.674 216.253C265.205 215.496 263.244 212.372 262.199 212.624C260.295 213.08 262.79 216.4 263.228 217.23C264.848 220.363 266.558 223.675 266.468 227.214C266.387 229.941 265.245 232.504 264.33 235.067C263.637 236.85 263.251 238.737 263.187 240.649C263.049 240.861 262.92 241.081 262.766 241.276C261.557 243.008 259.738 244.215 257.678 244.653C258.488 242.212 259.242 239.771 260.027 237.329C260.311 236.459 260.408 235.271 259.906 234.668C260.073 234.341 260.16 233.978 260.157 233.61C260.046 232.949 259.812 232.314 259.468 231.739C258.383 229.395 258.747 226.669 259.015 224.098C259.339 220.924 259.46 217.661 258.537 214.609C257.613 211.558 255.466 208.726 252.452 207.717L253.262 208.531L252.242 207.782L254.137 211.753L253.441 212.754C254.486 212.201 255.823 212.998 256.301 214.081C256.675 215.21 256.756 216.418 256.536 217.588C255.925 224.181 256.247 230.827 257.492 237.329C257.45 238.847 257.05 240.334 256.325 241.667C255.932 242.386 255.341 242.977 254.623 243.368C253.904 243.759 253.089 243.934 252.274 243.872C252.453 243.074 252.401 242.242 252.124 241.474C251.847 240.705 251.356 240.032 250.71 239.535C249.09 241.813 250.046 245.353 250.289 247.949C250.667 251.881 251.297 255.784 252.177 259.634C252.432 256.302 253.127 253.018 254.243 249.869C255.118 253.081 255.998 256.295 256.884 259.512C256.841 258.608 257.013 257.707 257.386 256.884C257.583 256.478 257.913 256.153 258.32 255.964C258.727 255.774 259.187 255.731 259.622 255.842C259.945 256.018 260.229 256.257 260.459 256.545C260.688 256.833 260.858 257.164 260.959 257.518C263.253 263.087 263.818 269.223 262.58 275.12C263.665 275.73 265.107 274.998 265.715 273.907C266.216 272.756 266.414 271.495 266.29 270.245C266.069 259.412 265.866 248.567 265.683 237.712Z" fill="#262940"/>
<path d="M238.217 241.154C237.699 242.065 239.838 245.695 240.17 246.557C241.952 250.935 243.737 255.316 245.525 259.699C244.931 253.923 243.535 248.258 241.377 242.871C241.012 241.968 239.246 239.339 238.217 241.154Z" fill="#262940"/>
<path d="M240.988 217.946C240.68 218.41 240.251 218.979 239.724 218.817C239.198 218.654 239.141 218.003 239.149 217.49C239.203 214.447 239.254 211.401 239.303 208.352C236.872 210.118 237.164 212.421 236.994 215.057C236.897 216.579 237.334 223.846 236.297 224.733C238.724 222.652 240.765 220.156 242.325 217.36C241.904 217.01 241.288 217.482 240.988 217.946Z" fill="#262940"/>
<g opacity="0.5">
<path d="M217.874 254.109C217.97 253.932 218.056 253.75 218.133 253.564C218.047 253.625 217.978 253.707 217.932 253.802C217.887 253.898 217.867 254.003 217.874 254.109Z" fill="white"/>
<path d="M220.28 241.504C220.118 239.502 220.402 237.484 220.321 235.474C220.24 233.464 219.713 231.348 218.255 229.965C216.164 227.988 210.436 228.997 212.356 232.756C212.637 233.269 213.091 233.664 213.637 233.868C214.183 234.073 214.783 234.074 215.33 233.871C215.591 233.748 215.824 233.573 216.017 233.358C216.21 233.142 216.358 232.89 216.452 232.616C216.546 232.343 216.585 232.053 216.567 231.764C216.548 231.475 216.472 231.192 216.343 230.933C217.469 232.725 218.025 234.818 217.936 236.935C217.848 239.052 217.12 241.091 215.848 242.782C217.304 244.113 218.307 245.87 218.717 247.804C219.127 249.738 218.923 251.752 218.133 253.564C218.33 253.428 218.563 253.356 218.801 253.356C219.04 253.356 219.273 253.428 219.47 253.564C219.968 254.075 220.323 254.71 220.499 255.403C220.782 256.062 221.309 256.746 222.022 256.697C222.994 254.296 222.678 251.57 222.022 249.064C221.366 246.557 220.483 244.116 220.28 241.504Z" fill="white"/>
<path d="M241.239 203.771C240.125 202.902 238.804 202.341 237.407 202.143L241.239 203.771Z" fill="white"/>
<path d="M250.767 229.233C250.459 227.849 249.819 226.563 249.438 225.164C248.555 221.982 249.114 218.581 248.709 215.301C248.157 211.018 246.006 207.106 242.689 204.356L241.239 203.738C242.644 204.806 243.667 206.302 244.156 208.002C245.282 211.892 245.63 215.944 246.133 219.964C246.894 226.176 248.017 232.339 249.495 238.42C250.459 235.425 251.439 232.284 250.767 229.233Z" fill="white"/>
<path d="M235.341 214.764C236.313 213.908 236.924 212.712 237.051 211.42C237.163 210.276 237.133 209.122 236.962 207.986C236.878 208.248 236.702 208.472 236.466 208.614C236.231 208.756 235.952 208.807 235.681 208.759C235.016 208.499 234.47 208 234.15 207.359L233.859 208.376L233.737 207.823L233.348 208.319C233.923 209.947 234.482 211.843 233.591 213.332C233.111 214.021 232.489 214.598 231.768 215.025C232.316 215.361 232.956 215.517 233.596 215.47C234.237 215.423 234.847 215.177 235.341 214.764Z" fill="white"/>
<path d="M236.913 207.579L236.961 207.986C236.989 207.848 236.972 207.706 236.913 207.579Z" fill="white"/>
<path d="M232.676 224.049C229.84 218.442 227.004 212.836 223.869 207.383C222.12 204.149 220.046 201.104 217.679 198.294C216.594 197.081 213.499 194.266 211.789 196.121C210.647 197.358 212.146 199.604 210.744 200.947C211.068 200.947 212.648 200.792 212.818 201.004C216.395 205.472 218.317 211.049 218.255 216.782C219.397 215.879 220.969 217.132 221.86 218.288C227.359 225.372 232.497 232.733 237.253 240.34C236.33 236.979 236.305 233.407 235.317 230.071C234.618 227.988 233.734 225.973 232.676 224.049Z" fill="white"/>
<path d="M265.683 237.712C267.131 234.121 267.988 230.317 268.218 226.45C268.374 222.875 267.49 219.332 265.674 216.253C265.205 215.496 263.244 212.372 262.199 212.624C260.295 213.08 262.79 216.4 263.228 217.23C264.848 220.363 266.558 223.675 266.468 227.214C266.387 229.941 265.245 232.504 264.33 235.067C263.637 236.85 263.251 238.737 263.187 240.649C263.049 240.861 262.92 241.081 262.766 241.276C261.557 243.008 259.738 244.215 257.678 244.653C258.488 242.212 259.242 239.771 260.027 237.329C260.311 236.459 260.408 235.271 259.906 234.668C260.073 234.341 260.16 233.978 260.157 233.61C260.046 232.949 259.812 232.314 259.468 231.739C258.383 229.395 258.747 226.669 259.015 224.098C259.339 220.924 259.46 217.661 258.537 214.609C257.613 211.558 255.466 208.726 252.452 207.717L253.262 208.531L252.242 207.782L254.137 211.753L253.441 212.754C254.486 212.201 255.823 212.998 256.301 214.081C256.675 215.21 256.756 216.418 256.536 217.588C255.925 224.181 256.247 230.827 257.492 237.329C257.45 238.847 257.05 240.334 256.325 241.667C255.932 242.386 255.341 242.977 254.623 243.368C253.904 243.759 253.089 243.934 252.274 243.872C252.453 243.074 252.401 242.242 252.124 241.474C251.847 240.705 251.356 240.032 250.71 239.535C249.09 241.813 250.046 245.353 250.289 247.949C250.667 251.881 251.297 255.784 252.177 259.634C252.432 256.302 253.127 253.018 254.243 249.869C255.118 253.081 255.998 256.295 256.884 259.512C256.841 258.608 257.013 257.707 257.386 256.884C257.583 256.478 257.913 256.153 258.32 255.964C258.727 255.774 259.187 255.731 259.622 255.842C259.945 256.018 260.229 256.257 260.459 256.545C260.688 256.833 260.858 257.164 260.959 257.518C263.253 263.087 263.818 269.223 262.58 275.12C263.665 275.73 265.107 274.998 265.715 273.907C266.216 272.756 266.414 271.495 266.29 270.245C266.069 259.412 265.866 248.567 265.683 237.712Z" fill="white"/>
<path d="M238.217 241.154C237.699 242.065 239.838 245.695 240.17 246.557C241.952 250.935 243.737 255.316 245.525 259.699C244.931 253.923 243.535 248.258 241.377 242.871C241.012 241.968 239.246 239.339 238.217 241.154Z" fill="white"/>
<path d="M240.988 217.946C240.68 218.41 240.251 218.979 239.724 218.817C239.198 218.654 239.141 218.003 239.149 217.49C239.203 214.447 239.254 211.401 239.303 208.352C236.872 210.118 237.164 212.421 236.994 215.057C236.897 216.579 237.334 223.846 236.297 224.733C238.724 222.652 240.765 220.156 242.325 217.36C241.904 217.01 241.288 217.482 240.988 217.946Z" fill="white"/>
</g>
<path d="M211.222 238.493C210.282 239.241 209.479 240.147 208.848 241.17L211.222 238.493Z" fill="white"/>
<path d="M244.877 312.544L236.419 285.804C228.479 277.594 213.896 270.083 212.632 258.707C211.011 244.108 208.767 244.702 208.767 241.073C209.636 239.281 210.383 237.432 211.003 235.539C211.38 234.094 211.651 232.622 211.813 231.137C211.918 230.398 212.297 229.726 212.874 229.255C213.45 228.784 214.183 228.55 214.925 228.598C215.959 228.664 216.947 229.05 217.752 229.705C219.19 231.038 220.061 232.877 220.183 234.839C220.291 236.781 220.146 238.729 219.753 240.633C221.241 243.776 222.286 247.112 222.856 250.545C223.545 247.811 224.023 245.068 224.703 242.334C224.882 242.228 224.801 242.017 224.963 241.903C223.569 239.364 224.606 239.462 221.811 233.806C217.104 224.334 211.943 215.244 207.884 203.217C207.55 202.097 207.497 200.912 207.73 199.767C208.678 196.195 212.316 196.756 214.017 198.693C214.463 199.203 214.831 199.776 215.111 200.393C217.577 205.472 220.497 210.315 223.837 214.862L233.559 227.744C233.559 227.744 236.459 225.018 236.856 223.854C237.237 222.69 236.856 213.527 236.856 213.527C236.856 213.527 236.273 215.285 234.725 215.285C233.607 215.285 231.387 216.099 229.654 214.374C228.98 213.679 228.563 212.774 228.473 211.809C228.383 210.843 228.625 209.876 229.159 209.068L232.781 203.372C233.609 202.623 234.626 202.118 235.72 201.911C236.815 201.705 237.945 201.804 238.987 202.2C241.649 203.326 244.132 204.837 246.36 206.684C248.463 206.497 250.581 206.775 252.566 207.498C255.482 208.677 258.699 212.38 258.699 212.38C258.699 212.38 261.996 212.38 263.56 213.332C263.949 213.576 269.49 221.095 268.081 227.329C267.27 231.047 266.938 236.386 266.549 237.834L266.452 273.81L273.144 297.653" stroke="#263238" stroke-miterlimit="10"/>
<path d="M247.218 207.978C248.645 213.285 249.386 218.755 249.422 224.252C249.376 225.174 249.474 226.096 249.714 226.987C249.84 227.43 250.077 227.833 250.401 228.159C250.726 228.485 251.128 228.723 251.569 228.85" stroke="#263238" stroke-miterlimit="10"/>
<path d="M258.65 213.324C261.08 218.418 258.593 229.802 258.771 230.6C258.847 231.005 259.008 231.389 259.244 231.726C259.481 232.063 259.786 232.345 260.141 232.553" stroke="#263238" stroke-miterlimit="10"/>
<path d="M237.764 207.286C237.48 208.913 237.245 210.777 236.953 212.396C236.009 211.582 235.236 210.587 234.68 209.469C234.123 208.352 233.794 207.133 233.713 205.886" stroke="#263238" stroke-miterlimit="10"/>
<path d="M222.241 250.699L220.482 251.44" stroke="#263238" stroke-miterlimit="10"/>
<path d="M222.686 252.107C222.407 253.465 222.407 254.867 222.686 256.225" stroke="#263238" stroke-miterlimit="10"/>
<path d="M232.927 236.906C233.575 238.07 234.215 239.242 234.863 240.414" stroke="#263238" stroke-miterlimit="10"/>
<path d="M236.686 224.065L238.614 221.331" stroke="#263238" stroke-miterlimit="10"/>
<path d="M263.77 236.906L263.187 239.046" stroke="#263238" stroke-miterlimit="10"/>
<path d="M259.055 231.039C259.595 229.216 260.165 227.394 260.764 225.571" stroke="#263238" stroke-miterlimit="10"/>
<path d="M264.759 221.331C265.272 221.064 265.869 221.01 266.421 221.182C266.974 221.354 267.436 221.738 267.708 222.251" stroke="#263238" stroke-miterlimit="10"/>
<path d="M253.116 211.997C253.789 211.809 254.498 211.792 255.178 211.948C255.859 212.104 256.49 212.429 257.013 212.893" stroke="#263238" stroke-miterlimit="10"/>
<path d="M217.031 217.425C217.66 216.733 218.442 216.199 219.315 215.869C220.188 215.538 221.127 215.419 222.054 215.521" stroke="#263238" stroke-miterlimit="10"/>
<path d="M209.715 202.078C210.294 201.658 210.95 201.357 211.645 201.192C212.34 201.028 213.061 201.002 213.766 201.118" stroke="#263238" stroke-miterlimit="10"/>
<path d="M211.222 238.493C210.282 239.241 209.479 240.147 208.848 241.17" stroke="#263238" stroke-miterlimit="10"/>
<path d="M212 234.799C213.28 233.879 215.321 235.93 216.496 234.88C216.704 234.644 216.85 234.36 216.919 234.052C216.989 233.745 216.98 233.425 216.893 233.122C216.72 232.517 216.64 231.888 216.658 231.259" stroke="#263238" stroke-miterlimit="10"/>
<path d="M248.126 229.151C249.684 232.402 250.001 236.114 249.017 239.584" stroke="#263238" stroke-miterlimit="10"/>
<path d="M257.54 234.172C257.791 235.713 257.505 237.294 256.73 238.648" stroke="#263238" stroke-miterlimit="10"/>
<path opacity="0.2" d="M179.204 246.386C179.277 246.951 179.252 247.523 179.131 248.079C178.604 250.52 177.081 257.665 176.522 261.571C175.858 266.34 168.185 281.101 168.185 281.101C168.185 281.101 161.12 289.922 157.523 294.511C155.757 296.766 152.962 305.904 150.588 314.578C147.59 313.667 144.62 312.685 141.676 311.633C139.246 310.762 136.815 309.842 134.385 308.89C130.049 307.081 125.823 305.016 121.73 302.706C123.074 297.823 123.974 294.023 123.958 293.803C123.917 293.291 126.842 287.635 126.842 287.635L124.29 253.881L122.783 248.746C121.999 246.095 121.502 243.367 121.3 240.609C120.983 236.421 121.336 232.21 122.345 228.134L126.745 221.575L128.802 221.421L135.17 212.469C135.17 212.469 138.614 211.428 139.497 214.032C140.38 216.636 136.629 221.502 136.629 221.502L135.341 229.534L138.403 237.053L140.023 237.639C140.023 237.639 140.558 224.399 140.194 221.754L143.515 209.719C144.511 207.748 145.393 205.721 146.156 203.648C146.772 201.622 150.394 199.58 152.476 203.168C152.829 203.819 153.041 204.538 153.097 205.277C153.153 206.017 153.052 206.76 152.8 207.457C151.949 209.939 151.244 211.892 151.244 211.892C151.244 211.892 150.434 222.129 150.232 222.413C150.029 222.698 151.73 237.655 151.73 237.655L153.059 238.249L153.529 223.968L156.292 210.549C156.292 210.549 156.065 204.096 160.594 204.853C161.293 204.826 161.983 205.01 162.577 205.382C163.17 205.753 163.639 206.294 163.924 206.936C165.131 209.255 163.98 224.7 163.98 224.7L165.098 240.666L166.889 252.978L168.995 244.539C168.995 244.539 169.117 232.447 176.716 231.413C176.716 231.413 178.977 231.007 179.439 232.585C179.9 234.164 178.312 237.386 178.539 240.479C178.742 242.676 179.05 245.125 179.204 246.386Z" fill="black"/>
<path d="M176.895 231.438C176.546 229.81 174.27 230.063 174.27 230.063C166.614 230.518 165.585 242.57 165.585 242.57L162.838 250.821L162.028 238.404L162.109 222.397C162.109 222.397 164.426 207.082 163.397 204.682C163.162 204.02 162.734 203.444 162.17 203.029C161.605 202.614 160.929 202.379 160.229 202.355C155.773 201.232 155.514 207.685 155.514 207.685L151.755 220.851L150.207 235.051L148.927 234.367C148.927 234.367 148.32 219.297 148.579 219.045C148.838 218.792 150.378 208.637 150.378 208.637C150.378 208.637 151.228 206.741 152.265 204.332C152.569 203.655 152.726 202.922 152.726 202.18C152.726 201.437 152.569 200.704 152.265 200.027C150.459 196.333 146.699 198.058 145.922 200.027C145.008 202.036 143.981 203.989 142.843 205.878L138.549 217.669C138.711 220.338 137.188 233.505 137.188 233.505L135.64 232.797L133.153 225.066L135.049 217.149C135.049 217.149 139.157 212.592 138.468 209.922C137.779 207.253 134.271 208.035 134.271 208.035L127.215 216.449H125.149L120.287 222.641C118.098 229.279 117.712 236.383 119.169 243.221L120.287 248.453V282.273C120.287 282.273 116.95 287.692 116.95 288.205C116.95 288.441 115.572 292.713 113.652 298.043C122.054 303.007 129.289 306.848 134.417 308.874C136.848 309.834 139.278 310.746 141.709 311.616C144.787 302.934 148.385 293.649 150.369 291.476C154.307 287.18 162.02 278.912 162.02 278.912C162.02 278.912 170.778 264.777 171.807 260.082C172.617 256.225 174.707 249.218 175.42 246.818C175.586 246.273 175.652 245.702 175.615 245.133C175.558 243.864 175.436 241.398 175.436 239.225C175.404 236.141 177.235 233.041 176.895 231.438Z" fill="#FAFAFA"/>
<path d="M124.314 228.036C125.626 226.409 128.316 225.766 129.839 227.223C130.626 228.137 131.11 229.275 131.225 230.478C131.335 231.683 131.756 232.839 132.448 233.83C133.258 234.75 134.79 235.108 135.608 234.229C135.721 236.011 135.827 237.793 135.94 239.575C137.833 236.255 138.796 232.481 138.727 228.655C138.727 226.808 138.411 224.928 138.841 223.121C139.27 221.315 140.655 219.573 142.503 219.484C144.544 219.394 146.156 221.388 146.553 223.406C146.95 225.424 146.489 227.475 146.367 229.542C146.176 232.682 146.778 235.82 148.117 238.664L149.405 236.044C149.794 237.801 150.215 239.551 150.564 241.3C150.899 237.443 151.234 233.589 151.568 229.737C151.596 228.643 151.836 227.565 152.273 226.564C152.503 226.068 152.871 225.65 153.333 225.361C153.794 225.072 154.33 224.925 154.874 224.936C156.332 225.082 157.175 226.645 157.661 228.028C161.315 238.404 159.808 249.788 158.261 260.676C159.273 260.863 160.132 259.862 160.383 258.829C160.498 257.803 160.679 256.787 160.926 255.785C161.307 254.817 162.473 254.027 163.357 254.581C164.637 255.395 163.745 257.885 165.082 258.576C165.506 255.339 166.772 252.271 168.752 249.682C169.652 248.51 170.997 247.347 172.422 247.721C172.941 247.902 173.396 248.228 173.737 248.661C174.077 249.093 174.287 249.614 174.343 250.162C174.497 251.253 176.068 246.744 175.793 247.81C176.409 241.536 175.177 240.877 175.793 234.595C175.906 233.464 177.729 231.503 176.951 230.673C176.174 229.843 174.01 228.72 173.03 229.176C172.05 229.631 168.874 231.226 168.242 232.097C164.256 237.622 164.531 245.613 163.292 252.319C162.23 242.098 161.185 231.706 163.049 221.608C164.078 216.034 165.973 210.215 164.183 204.853C163.373 202.411 161.193 199.97 158.658 200.41C156.616 200.784 155.417 202.851 154.55 204.771C151.763 211.2 150.499 218.182 149.3 225.115L153.853 204.242C154.367 202.463 154.526 200.599 154.323 198.758C153.991 196.935 152.751 195.153 150.953 194.77C149.154 194.388 147.388 195.454 146.043 196.691C141.182 201.118 139.432 207.872 137.86 214.235C138.526 212.608 138.846 210.859 138.8 209.1C138.63 207.359 137.528 205.585 135.827 205.203C133.615 204.723 131.614 206.7 130.641 208.742C129.669 210.785 129.199 213.153 127.652 214.805C126.526 213.535 124.411 213.609 123.001 214.553C121.651 215.599 120.626 217.011 120.044 218.621C117.504 224.363 116.426 230.65 116.909 236.914C117.494 235.67 118.446 234.637 119.636 233.956C120.826 233.274 122.197 232.978 123.561 233.106C123.398 231.723 123.245 230.339 123.083 228.948" fill="#262940"/>
<path d="M129.653 241.276C129.58 242.301 129.515 243.327 129.442 244.352C129.533 244.148 129.669 243.967 129.84 243.823C130.01 243.679 130.211 243.576 130.427 243.521C130.643 243.466 130.869 243.461 131.087 243.506C131.305 243.552 131.51 243.646 131.687 243.782C131.664 243.111 131.842 242.448 132.197 241.878C132.456 241.26 132.481 240.381 131.881 240.088C131.281 239.795 130.471 240.56 130.091 241.26C130.091 241.007 130.034 240.755 130.001 240.495L129.653 241.276Z" fill="#262940"/>
<path d="M141.271 239.437C140.439 240.406 139.88 241.58 139.651 242.839C139.981 242.464 140.387 242.164 140.842 241.96C141.07 241.866 141.322 241.845 141.563 241.901C141.803 241.956 142.021 242.085 142.187 242.269C142.365 242.513 142.43 242.871 142.705 243.009C142.852 243.071 143.017 243.074 143.166 243.02C143.316 242.966 143.441 242.858 143.515 242.716C143.656 242.44 143.726 242.132 143.718 241.821C143.791 241.232 143.758 240.634 143.621 240.056C143.549 239.767 143.404 239.502 143.199 239.286C142.994 239.071 142.738 238.912 142.454 238.827C142.311 238.795 142.164 238.793 142.02 238.822C141.877 238.851 141.741 238.909 141.622 238.993C141.502 239.077 141.401 239.186 141.326 239.311C141.25 239.437 141.201 239.576 141.182 239.722L141.271 239.437Z" fill="#262940"/>
<path d="M152.524 242.236C151.639 243.435 151.055 244.831 150.823 246.305C151.414 246.161 151.958 245.867 152.403 245.451C152.851 245.025 153.415 244.742 154.023 244.637C154.171 244.619 154.32 244.63 154.463 244.67C154.606 244.71 154.74 244.778 154.857 244.871C154.974 244.963 155.071 245.077 155.143 245.208C155.216 245.338 155.262 245.481 155.279 245.63C155.207 244.941 155.229 244.245 155.344 243.563C155.459 242.877 155.409 242.174 155.198 241.512C155.083 241.184 154.872 240.898 154.593 240.692C154.314 240.486 153.98 240.369 153.634 240.356C153.465 240.366 153.301 240.416 153.154 240.501C153.007 240.586 152.882 240.705 152.789 240.847C152.696 240.99 152.638 241.152 152.619 241.321C152.599 241.49 152.62 241.661 152.678 241.821L152.524 242.236Z" fill="#262940"/>
<path d="M121.568 246.321C120.944 247.499 120.619 248.812 120.62 250.146C120.652 249.841 120.788 249.556 121.005 249.339C121.222 249.123 121.506 248.988 121.811 248.958C122.422 248.908 123.032 249.072 123.536 249.422C123.699 248.812 123.737 248.175 123.65 247.55C123.598 247.242 123.459 246.955 123.249 246.724C123.039 246.494 122.768 246.328 122.467 246.248C121.843 246.15 121.162 246.745 121.333 247.347L121.146 246.883L121.568 246.321Z" fill="#262940"/>
<path opacity="0.5" d="M124.314 228.036C125.626 226.409 128.316 225.766 129.839 227.223C130.626 228.137 131.11 229.275 131.225 230.478C131.335 231.683 131.756 232.839 132.448 233.83C133.258 234.75 134.79 235.108 135.608 234.229C135.721 236.011 135.827 237.793 135.94 239.575C137.833 236.255 138.796 232.481 138.727 228.655C138.727 226.808 138.411 224.928 138.841 223.121C139.27 221.315 140.655 219.573 142.503 219.484C144.544 219.394 146.156 221.388 146.553 223.406C146.95 225.424 146.489 227.475 146.367 229.542C146.176 232.682 146.778 235.82 148.117 238.664L149.405 236.044C149.794 237.801 150.215 239.551 150.564 241.3C150.899 237.443 151.234 233.589 151.568 229.737C151.596 228.643 151.836 227.565 152.273 226.564C152.503 226.068 152.871 225.65 153.333 225.361C153.794 225.072 154.33 224.925 154.874 224.936C156.332 225.082 157.175 226.645 157.661 228.028C161.315 238.404 159.808 249.788 158.261 260.676C159.273 260.863 160.132 259.862 160.383 258.829C160.498 257.803 160.679 256.787 160.926 255.785C161.307 254.817 162.473 254.027 163.357 254.581C164.637 255.395 163.745 257.885 165.082 258.576C165.506 255.339 166.772 252.271 168.752 249.682C169.652 248.51 170.997 247.347 172.422 247.721C172.941 247.902 173.396 248.228 173.737 248.661C174.077 249.093 174.287 249.614 174.343 250.162C174.497 251.253 176.068 246.744 175.793 247.81C176.409 241.536 175.177 240.877 175.793 234.595C175.906 233.464 177.729 231.503 176.951 230.673C176.174 229.843 174.01 228.72 173.03 229.176C172.05 229.631 168.874 231.226 168.242 232.097C164.256 237.622 164.531 245.613 163.292 252.319C162.23 242.098 161.185 231.706 163.049 221.608C164.078 216.034 165.973 210.215 164.183 204.853C163.373 202.411 161.193 199.97 158.658 200.41C156.616 200.784 155.417 202.851 154.55 204.771C151.763 211.2 150.499 218.182 149.3 225.115L153.853 204.242C154.367 202.463 154.526 200.599 154.323 198.758C153.991 196.935 152.751 195.153 150.953 194.77C149.154 194.388 147.388 195.454 146.043 196.691C141.182 201.118 139.432 207.872 137.86 214.235C138.526 212.608 138.846 210.859 138.8 209.1C138.63 207.359 137.528 205.585 135.827 205.203C133.615 204.723 131.614 206.7 130.641 208.742C129.669 210.785 129.199 213.153 127.652 214.805C126.526 213.535 124.411 213.609 123.001 214.553C121.651 215.599 120.626 217.011 120.044 218.621C117.504 224.363 116.426 230.65 116.909 236.914C117.494 235.67 118.446 234.637 119.636 233.956C120.826 233.274 122.197 232.978 123.561 233.106C123.398 231.723 123.245 230.339 123.083 228.948" fill="white"/>
<g opacity="0.5">
<path d="M129.653 241.276C129.58 242.302 129.515 243.327 129.442 244.352C129.533 244.148 129.669 243.967 129.84 243.823C130.01 243.679 130.211 243.576 130.427 243.521C130.643 243.466 130.869 243.461 131.087 243.507C131.305 243.552 131.51 243.646 131.687 243.783C131.664 243.111 131.842 242.448 132.197 241.878C132.456 241.26 132.481 240.381 131.881 240.088C131.281 239.795 130.471 240.56 130.091 241.26C130.091 241.008 130.034 240.755 130.001 240.495L129.653 241.276Z" fill="white"/>
<path d="M141.271 239.437C140.439 240.406 139.88 241.58 139.651 242.839C139.981 242.464 140.387 242.164 140.842 241.96C141.07 241.866 141.322 241.845 141.563 241.901C141.803 241.956 142.021 242.085 142.187 242.269C142.365 242.513 142.43 242.871 142.705 243.009C142.852 243.071 143.017 243.074 143.166 243.02C143.316 242.966 143.441 242.858 143.515 242.716C143.656 242.44 143.726 242.132 143.718 241.821C143.791 241.232 143.758 240.634 143.621 240.056C143.549 239.767 143.404 239.502 143.199 239.286C142.994 239.071 142.738 238.912 142.454 238.827C142.311 238.795 142.164 238.793 142.02 238.822C141.877 238.851 141.741 238.909 141.622 238.993C141.502 239.077 141.401 239.186 141.326 239.311C141.25 239.437 141.201 239.576 141.182 239.722L141.271 239.437Z" fill="white"/>
<path d="M152.525 242.236C151.639 243.435 151.055 244.831 150.823 246.305C151.414 246.161 151.958 245.867 152.403 245.451C152.851 245.025 153.415 244.742 154.023 244.637C154.171 244.619 154.32 244.63 154.464 244.67C154.607 244.71 154.74 244.779 154.857 244.871C154.974 244.963 155.071 245.078 155.144 245.208C155.216 245.338 155.262 245.482 155.279 245.63C155.208 244.941 155.229 244.246 155.344 243.563C155.459 242.877 155.409 242.174 155.198 241.512C155.083 241.184 154.872 240.899 154.593 240.693C154.315 240.487 153.981 240.37 153.635 240.357C153.465 240.367 153.301 240.416 153.154 240.501C153.007 240.587 152.883 240.705 152.79 240.847C152.697 240.99 152.638 241.152 152.619 241.321C152.6 241.49 152.62 241.662 152.679 241.821L152.525 242.236Z" fill="white"/>
<path d="M121.568 246.321C120.944 247.499 120.619 248.812 120.62 250.146C120.652 249.841 120.788 249.556 121.005 249.339C121.222 249.123 121.506 248.988 121.811 248.958C122.422 248.908 123.032 249.072 123.536 249.422C123.699 248.812 123.737 248.175 123.65 247.55C123.598 247.242 123.459 246.955 123.249 246.724C123.039 246.494 122.768 246.328 122.467 246.248C121.843 246.15 121.162 246.745 121.333 247.347L121.146 246.883L121.568 246.321Z" fill="white"/>
</g>
<path d="M113.628 298.059C115.548 292.729 116.925 288.457 116.925 288.221C116.925 287.709 120.263 282.289 120.263 282.289V248.47L119.145 243.237C117.687 236.4 118.073 229.295 120.263 222.658L125.124 216.465H127.19L134.206 208.035C134.206 208.035 137.722 207.221 138.403 209.922C139.084 212.624 134.984 217.149 134.984 217.149L133.088 225.066L135.575 232.797L137.123 233.505C137.123 233.505 138.646 220.338 138.484 217.669L142.778 205.878C143.916 203.989 144.944 202.036 145.857 200.027C146.667 198.058 150.394 196.333 152.2 200.027C152.504 200.704 152.662 201.437 152.662 202.18C152.662 202.922 152.504 203.655 152.2 204.332C151.163 206.773 150.313 208.637 150.313 208.637C150.313 208.637 148.773 218.784 148.514 219.045C148.255 219.305 148.862 234.367 148.862 234.367L150.143 235.051L151.69 220.851L155.449 207.685C155.449 207.685 155.708 201.232 160.164 202.355C160.864 202.379 161.54 202.614 162.105 203.029C162.67 203.444 163.097 204.02 163.332 204.682C164.361 207.082 162.044 222.397 162.044 222.397L161.987 238.42L162.798 250.838L165.544 242.586C165.544 242.586 166.573 230.535 174.229 230.079C174.229 230.079 176.506 229.843 176.854 231.454C177.203 233.065 175.363 236.158 175.363 239.258C175.363 241.431 175.485 243.896 175.542 245.166C175.579 245.735 175.513 246.305 175.347 246.85C174.634 249.292 172.576 256.257 171.734 260.114C170.705 264.81 161.947 278.945 161.947 278.945C161.947 278.945 154.234 287.212 150.296 291.509C148.311 293.681 144.714 302.966 141.636 311.649" stroke="#263238" stroke-miterlimit="10"/>
<path d="M137.034 234.774C137.254 235.582 137.264 236.432 137.062 237.244C136.861 238.057 136.455 238.803 135.883 239.413" fill="#FAFAFA"/>
<path d="M137.034 234.774C137.254 235.582 137.264 236.432 137.062 237.244C136.861 238.057 136.455 238.803 135.883 239.413" stroke="#263238" stroke-miterlimit="10"/>
<path d="M123.941 246.15C125.051 244.425 126.137 242.041 125.837 240.007C125.254 236.011 123.406 231.413 124.217 227.459C124.735 224.936 125.254 222.405 125.78 219.883" fill="#FAFAFA"/>
<path d="M123.941 246.15C125.051 244.425 126.137 242.041 125.837 240.007C125.254 236.011 123.406 231.413 124.217 227.459C124.735 224.936 125.254 222.405 125.78 219.883" stroke="#263238" stroke-miterlimit="10"/>
<path d="M156.243 208.409C157.571 208.057 158.966 208.057 160.294 208.409C160.294 208.026 160.294 207.652 160.335 207.27" stroke="#263238" stroke-miterlimit="10"/>
<path d="M145.605 203.331C145.997 203.598 146.453 203.753 146.925 203.779C147.398 203.804 147.868 203.699 148.285 203.475C148.702 203.251 149.051 202.917 149.292 202.509C149.534 202.101 149.66 201.634 149.656 201.158" stroke="#263238" stroke-miterlimit="10"/>
<path d="M174.885 231.576C173.765 231.866 172.781 232.538 172.102 233.479C171.423 234.419 171.093 235.568 171.167 236.727L173.152 237.329" stroke="#263238" stroke-miterlimit="10"/>
<path d="M148.814 232.569C148.903 233.936 148.733 237.199 148.814 238.566V232.569Z" fill="#FAFAFA"/>
<path d="M148.814 232.569C148.903 233.936 148.733 237.199 148.814 238.566" stroke="#263238" stroke-miterlimit="10"/>
<path d="M150.305 234.465C150.142 236.695 149.978 238.93 149.81 241.17C149.81 240.886 149.81 240.601 149.81 240.316" fill="#FAFAFA"/>
<path d="M150.305 234.465C150.142 236.695 149.978 238.93 149.81 241.17C149.81 240.886 149.81 240.601 149.81 240.316" stroke="#263238" stroke-miterlimit="10"/>
<path d="M162.668 253.32C163.256 255.793 162.987 258.393 161.906 260.692L162.668 253.32Z" fill="#FAFAFA"/>
<path d="M162.668 253.32C163.256 255.793 162.987 258.393 161.906 260.692" stroke="#263238" stroke-miterlimit="10"/>
<path d="M142.13 241.594C140.364 243.538 140.623 248.209 141.871 250.773" stroke="#263238" stroke-miterlimit="10"/>
<path d="M155.182 244.808C155.193 246.992 154.426 249.108 153.019 250.773" stroke="#263238" stroke-miterlimit="10"/>
<path d="M129.264 242.489C128.97 244.471 129.398 246.494 130.471 248.185" stroke="#263238" stroke-miterlimit="10"/>
<path d="M121.746 248.6C121.667 250.148 122.106 251.677 122.993 252.945" stroke="#263238" stroke-miterlimit="10"/>
<path d="M132.051 211.086C132.515 210.87 133.033 210.797 133.538 210.879C134.044 210.96 134.513 211.191 134.887 211.542L135.883 210.215" stroke="#263238" stroke-miterlimit="10"/>
<path d="M140.364 217.059C141.048 216.652 141.854 216.502 142.638 216.635C143.423 216.767 144.135 217.174 144.649 217.783" stroke="#263238" stroke-miterlimit="10"/>
<path d="M153.343 221.128C154.071 220.803 154.862 220.644 155.659 220.66C156.455 220.677 157.239 220.87 157.953 221.225" stroke="#263238" stroke-miterlimit="10"/>
<path d="M124.46 227.955C124.891 227.231 125.52 226.646 126.273 226.271C127.026 225.896 127.87 225.746 128.705 225.839" stroke="#263238" stroke-miterlimit="10"/>
<path d="M119.023 235.734C119.05 235.208 119.254 234.706 119.604 234.312C119.953 233.918 120.426 233.656 120.944 233.57" stroke="#263238" stroke-miterlimit="10"/>
<path d="M327.783 177.267C346.329 177.267 361.365 162.165 361.365 143.537C361.365 124.908 346.329 109.807 327.783 109.807C309.236 109.807 294.201 124.908 294.201 143.537C294.201 162.165 309.236 177.267 327.783 177.267Z" stroke="#263238" stroke-linecap="round" stroke-linejoin="round"/>
<path opacity="0.2" d="M365.796 144.416C358.634 156.207 356.074 154.612 331.671 166.387C319.268 172.36 307.285 153.18 315.395 133.495C315.792 132.535 319.292 127.677 319.292 127.677C320.035 124.402 321.678 121.401 324.033 119.016C326.389 116.631 329.363 114.957 332.618 114.184C335.873 113.411 339.279 113.571 342.448 114.644C345.617 115.717 348.424 117.661 350.549 120.256C352.878 118.25 355.649 116.83 358.633 116.114C361.617 115.398 364.728 115.406 367.708 116.138C367.992 116.952 368.259 117.766 368.518 118.579C368.616 118.889 368.721 119.19 368.81 119.499C369.118 120.451 369.41 121.403 369.677 122.363C370.217 124.186 370.714 126.02 371.168 127.864C368.545 127.013 365.699 127.185 363.196 128.344C361.405 129.223 359.906 130.672 358.043 131.388C356.179 132.104 353.603 131.697 352.89 129.825C353.789 133.585 357.751 132.462 361.494 133.202C367.328 134.333 368.81 139.452 365.796 144.416Z" fill="black"/>
<path d="M354.77 138.598C354.77 138.598 360.781 137.784 363.633 138.215C365.006 138.409 366.254 139.118 367.125 140.201C367.37 140.51 367.514 140.888 367.538 141.283L367.862 146.003C367.881 146.268 367.844 146.535 367.755 146.786C367.666 147.036 367.526 147.266 367.344 147.459C366.169 148.688 362.629 150.926 352.145 151.732C337.375 152.863 354.77 138.598 354.77 138.598Z" fill="#FAFAFA" stroke="#263238" stroke-linecap="round" stroke-linejoin="round"/>
<path d="M350.371 126.399C353.62 130.472 355.361 135.552 355.296 140.77C355.296 146.393 348.815 165.598 332.214 167.941C314.642 170.382 300.512 155.312 303.526 137.133C305.616 124.536 336.265 108.79 350.371 126.399Z" fill="#FAFAFA" stroke="#263238" stroke-linecap="round" stroke-linejoin="round"/>
<path d="M328.901 163.726C342.982 163.726 354.397 152.873 354.397 139.484C354.397 126.096 342.982 115.243 328.901 115.243C314.819 115.243 303.404 126.096 303.404 139.484C303.404 152.873 314.819 163.726 328.901 163.726Z" fill="white"/>
<path d="M328.852 160.65C340.414 160.65 349.787 151.742 349.787 140.754C349.787 129.766 340.414 120.858 328.852 120.858C317.29 120.858 307.917 129.766 307.917 140.754C307.917 151.742 317.29 160.65 328.852 160.65Z" fill="#263238"/>
<path d="M354.397 139.476C354.397 126.09 342.982 115.243 328.901 115.243C314.82 115.243 303.404 126.123 303.404 139.476" stroke="#263238" stroke-linecap="round" stroke-linejoin="round"/>
<path d="M347.681 155.881C351.977 151.51 354.391 145.619 354.405 139.476" stroke="#263238" stroke-linecap="round" stroke-linejoin="round"/>
<path d="M311.044 156.777C315.901 161.267 322.268 163.746 328.868 163.718C332.973 163.727 337.024 162.783 340.705 160.959" stroke="#263238" stroke-linecap="round" stroke-linejoin="round"/>
<path d="M307.366 152.456C307.698 152.96 308.055 153.449 308.419 153.921" stroke="#263238" stroke-linecap="round" stroke-linejoin="round"/>
<path d="M303.404 139.476C303.403 143.067 304.235 146.608 305.835 149.819" stroke="#263238" stroke-linecap="round" stroke-linejoin="round"/>
<path d="M366.315 146.117C366.315 146.117 361.77 142.918 354.389 145.815L366.315 146.117Z" fill="#FAFAFA"/>
<path d="M366.315 146.117C366.315 146.117 361.77 142.918 354.389 145.815" stroke="#263238" stroke-linecap="round" stroke-linejoin="round"/>
<path d="M362.41 148.33C359.326 149.152 356.166 149.651 352.979 149.819L362.41 148.33Z" fill="#FAFAFA"/>
<path d="M362.41 148.33C359.326 149.152 356.166 149.651 352.979 149.819" stroke="#263238" stroke-linecap="round" stroke-linejoin="round"/>
<path d="M364.768 147.321C364.42 147.573 364.038 147.774 363.633 147.915L364.768 147.321Z" fill="#FAFAFA"/>
<path d="M364.768 147.321C364.42 147.573 364.038 147.774 363.633 147.915" stroke="#263238" stroke-linecap="round" stroke-linejoin="round"/>
<path d="M368.81 119.475C368.721 119.165 368.616 118.864 368.519 118.555C366.971 113.738 364.978 108.448 362.556 102.866C362.11 101.832 361.64 100.783 361.17 99.7249L360.627 99.7737C358.302 100.01 355.855 100.303 353.943 101.629C352.031 102.955 350.889 105.755 352.129 107.748C353.368 109.742 356.528 110.824 356.026 113.078C350.832 116.016 344.497 115.674 338.72 117.147C335.234 118.04 331.95 119.595 329.047 121.729C328.13 122.415 327.254 123.154 326.422 123.942C326.037 124.299 325.679 124.686 325.352 125.098C324.854 125.683 324.536 126.401 324.437 127.164C324.234 129.337 326.203 130.818 328.301 131.762C328.389 131.797 328.465 131.857 328.518 131.936C328.571 132.014 328.6 132.107 328.6 132.202C328.6 132.296 328.571 132.389 328.518 132.467C328.465 132.546 328.389 132.606 328.301 132.641C326.917 133.136 325.635 133.881 324.518 134.838C324.365 134.976 324.262 135.161 324.223 135.364C324.185 135.567 324.214 135.777 324.306 135.961C324.398 136.146 324.548 136.295 324.732 136.387C324.917 136.478 325.126 136.505 325.328 136.466H325.652C326.473 136.398 327.3 136.497 328.082 136.759C328.633 136.893 329.133 137.184 329.522 137.597C329.911 138.01 330.174 138.527 330.278 139.086C330.408 140.713 328.536 142.227 326.106 142.414C325.514 142.471 325.968 143.179 326.835 143.325C328.574 143.538 330.338 143.394 332.02 142.902C334.054 142.414 336.225 141.706 337.375 139.957C337.85 139.184 338.023 138.262 337.861 137.369C337.816 136.789 337.579 136.24 337.189 135.81C336.799 135.38 336.277 135.092 335.706 134.993C339.465 134.546 343.182 133.798 346.822 132.755L347.964 132.405C349.076 132.119 350.135 131.655 351.1 131.03C351.668 130.641 352.138 130.122 352.469 129.516C353.279 127.889 352.121 125.293 350.322 125.635C355.548 123.576 361.073 122.38 366.355 120.475C367.125 120.158 367.984 119.833 368.81 119.475Z" fill="white"/>
<path opacity="0.2" d="M328.755 49.0852C323.756 53.3922 318.357 57.2072 312.632 60.4777C283.133 78.0058 249.811 88.5032 215.913 93.6216C182.015 98.7401 147.501 98.5855 113.344 95.7618C106.636 95.2085 99.814 94.5249 93.6486 91.807C88.4229 89.4959 83.6833 85.476 81.4958 80.2762C88.8928 71.8132 95.7712 63.2526 103.427 55.1721C105.253 53.2462 107.122 51.3474 109.034 49.4758C110.654 47.9216 112.275 46.3917 114.008 44.8944C115.969 43.21 117.938 41.493 120.02 39.8655C122.896 37.6195 125.926 35.4631 129.167 33.4043C129.977 32.8916 130.787 32.3953 131.541 31.907C212.324 -18.5454 271.783 -2.05882 311.449 31.907C314.458 34.5002 317.353 37.153 320.134 39.8655C321.82 41.493 323.448 43.1937 324.995 44.9026C325.174 45.0816 325.336 45.2687 325.506 45.464C326.624 46.6738 327.707 47.8809 328.755 49.0852Z" fill="black"/>
<path d="M331.947 40.9966L60.1558 42.2416L64.2634 36.049C65.2377 34.5853 66.5561 33.3852 68.102 32.5549C69.6479 31.7246 71.3737 31.2897 73.1267 31.2886H319.065C320.657 31.289 322.229 31.6482 323.665 32.3396C325.101 33.0311 326.364 34.0373 327.361 35.2841L331.947 40.9966Z" fill="#FAFAFA" stroke="#263238" stroke-linecap="round" stroke-linejoin="round"/>
<path d="M200.787 81.9199H185.896C170.615 81.9199 158.228 94.3617 158.228 109.709V124.666C158.228 140.014 170.615 152.456 185.896 152.456H200.787C216.067 152.456 228.454 140.014 228.454 124.666V109.709C228.454 94.3617 216.067 81.9199 200.787 81.9199Z" fill="#757575" stroke="#263238" stroke-linecap="round" stroke-linejoin="round"/>
<path d="M170.988 123.145V133.17C170.988 134.681 171.586 136.129 172.649 137.198C173.713 138.266 175.155 138.866 176.66 138.866H210.906C212.403 138.866 213.839 138.272 214.902 137.212C215.964 136.153 216.566 134.714 216.577 133.211C216.618 128.694 216.861 123.145 216.861 123.145H170.988Z" fill="#999999" stroke="#263238" stroke-linecap="round" stroke-linejoin="round"/>
<path d="M296.332 126.489H96.0468C95.0168 126.491 94.0099 126.182 93.1573 125.601C92.3047 125.021 91.6459 124.196 91.2668 123.234L60.3746 43.5762C60.1877 43.0959 60.1201 42.5771 60.1777 42.0647C60.2352 41.5523 60.4163 41.0617 60.7051 40.6353C60.994 40.209 61.3819 39.8597 61.8353 39.6179C62.2887 39.376 62.794 39.2487 63.3075 39.2471H329.047C329.561 39.2461 330.069 39.3714 330.524 39.6122C330.98 39.8529 331.37 40.2019 331.661 40.6286C331.951 41.0553 332.134 41.5469 332.192 42.0607C332.251 42.5744 332.183 43.0946 331.996 43.5762L301.103 123.21C300.729 124.175 300.073 125.004 299.221 125.589C298.37 126.174 297.363 126.488 296.332 126.489Z" fill="#BFBFBF" stroke="#263238" stroke-linecap="round" stroke-linejoin="round"/>
<path d="M297.814 119.556H94.0779L66.0457 44.2922H325.717L297.814 119.556Z" fill="#263238"/>
<path d="M216.626 126.391H171.207V129.516H216.626V126.391Z" fill="#263238"/>
<path d="M268.056 116.358H124.184C123.374 116.358 122.645 116 122.499 115.544L102.034 50.2082C101.807 49.4759 102.447 48.8818 103.468 48.8818H288.772C289.793 48.8818 290.393 49.4759 290.198 50.2082L269.741 115.544C269.595 115.959 268.842 116.358 268.056 116.358Z" fill="#52A713"/>
<path d="M267.521 114.844H124.719L107.324 57.4668H284.916L267.521 114.844Z" fill="#263238"/>
<path d="M145.217 71.7075H118.181C117.508 71.7075 117.071 72.0656 117.2 72.5213C117.33 72.7842 117.536 73.0021 117.79 73.1471C118.044 73.2921 118.335 73.3575 118.626 73.335H145.508C146.173 73.335 146.642 72.977 146.57 72.5213C146.497 72.0656 145.881 71.7075 145.217 71.7075Z" fill="#FAFAFA"/>
<path d="M146.116 76.6631H123.123C122.467 76.6631 122.029 77.013 122.151 77.4768C122.28 77.7282 122.481 77.9356 122.727 78.0731C122.974 78.2106 123.255 78.2721 123.536 78.2499H146.399C147.056 78.2499 147.517 77.9 147.444 77.4768C147.372 77.0537 146.756 76.6631 146.116 76.6631Z" fill="#FAFAFA"/>
<path opacity="0.5" d="M146.991 81.448H120.903C120.255 81.448 119.834 81.7898 119.947 82.1966C120.079 82.4428 120.28 82.6448 120.524 82.7779C120.769 82.9109 121.047 82.9691 121.324 82.9453H147.25C147.89 82.9453 148.352 82.6117 148.279 82.1966C148.206 81.7816 147.639 81.448 146.991 81.448Z" fill="#FAFAFA"/>
<path d="M147.833 86.0701H132.513C131.881 86.0701 131.443 86.3956 131.541 86.7943C131.638 87.193 132.229 87.5185 132.861 87.5185H148.101C148.733 87.5185 149.186 87.193 149.113 86.7943C149.041 86.3956 148.465 86.0701 147.833 86.0701Z" fill="#FAFAFA"/>
<path d="M148.652 90.5293H123.439C122.823 90.5293 122.402 90.8467 122.515 91.2373C122.629 91.6279 123.212 91.9289 123.836 91.9289H148.903C149.527 91.9289 149.972 91.6197 149.907 91.2373C149.843 90.8548 149.276 90.5293 148.652 90.5293Z" fill="#FAFAFA"/>
<path d="M149.437 94.8503H129.086C128.47 94.8503 128.057 95.1514 128.154 95.5257C128.251 95.9001 128.827 96.2012 129.434 96.2012H149.689C150.296 96.2012 150.734 95.9001 150.669 95.5257C150.604 95.1514 150.053 94.8503 149.437 94.8503Z" fill="#FAFAFA"/>
<path d="M150.199 99.0249H130.18C129.572 99.0249 129.167 99.3179 129.264 99.6759C129.361 100.034 129.92 100.335 130.52 100.335H150.442C151.042 100.335 151.471 100.042 151.406 99.6759C151.342 99.3097 150.807 99.0249 150.199 99.0249Z" fill="#FAFAFA"/>
<path d="M150.937 103.061H129.062C128.47 103.061 128.065 103.346 128.162 103.696C128.26 104.046 128.811 104.33 129.402 104.33H151.139C151.731 104.33 152.16 104.046 152.095 103.696C152.03 103.346 151.536 103.061 150.937 103.061Z" fill="#FAFAFA"/>
<path opacity="0.5" d="M151.658 106.975H137.544C136.961 106.975 136.556 107.252 136.637 107.594C136.718 107.936 137.261 108.204 137.836 108.204H151.876C152.46 108.204 152.881 107.927 152.824 107.594C152.767 107.26 152.241 106.975 151.658 106.975Z" fill="#FAFAFA"/>
<path opacity="0.5" d="M144.277 66.5645H124.128C123.447 66.5645 122.993 66.9388 123.115 67.3782C123.244 67.6432 123.451 67.8627 123.707 68.0079C123.962 68.1531 124.256 68.2173 124.549 68.192H144.577C145.257 68.192 145.735 67.8258 145.654 67.3782C145.541 67.1125 145.347 66.8901 145.099 66.7436C144.851 66.5972 144.563 66.5344 144.277 66.5645Z" fill="#FAFAFA"/>
<path d="M143.296 61.2346H115.248C114.559 61.2346 114.106 61.6252 114.243 62.1053C114.38 62.3804 114.594 62.609 114.859 62.7624C115.124 62.9158 115.429 62.9873 115.734 62.9679H143.612C144.301 62.9679 144.795 62.5773 144.706 62.1053C144.598 61.8255 144.402 61.589 144.147 61.4318C143.893 61.2746 143.594 61.2053 143.296 61.2346Z" fill="#FAFAFA"/>
<path d="M152.346 110.767H129.102C128.527 110.767 128.138 111.036 128.227 111.361C128.316 111.687 128.859 111.955 129.434 111.955H152.565C153.132 111.955 153.553 111.695 153.497 111.361C153.44 111.028 152.921 110.767 152.346 110.767Z" fill="#FAFAFA"/>
<path opacity="0.5" d="M154.712 73.5222H159.954L159.694 71.5122H154.412L154.712 73.5222Z" fill="#FAFAFA"/>
<path opacity="0.5" d="M155.441 78.4128H160.594L160.343 76.4761H155.149L155.441 78.4128Z" fill="#FAFAFA"/>
<path opacity="0.5" d="M156.146 83.1405H161.209L160.966 81.2607H155.87L156.146 83.1405Z" fill="#FAFAFA"/>
<path opacity="0.5" d="M156.826 87.6976H161.809L161.566 85.8911H156.559L156.826 87.6976Z" fill="#FAFAFA"/>
<path opacity="0.5" d="M157.491 92.108H162.384L162.157 90.3584H157.223L157.491 92.108Z" fill="#FAFAFA"/>
<path opacity="0.5" d="M158.131 96.372H162.935L162.716 94.6794H157.872L158.131 96.372Z" fill="#FAFAFA"/>
<path opacity="0.5" d="M158.747 100.498H163.478L163.259 98.8621H158.495L158.747 100.498Z" fill="#FAFAFA"/>
<path opacity="0.5" d="M159.338 104.493H163.997L163.794 102.906H159.103L159.338 104.493Z" fill="#FAFAFA"/>
<path opacity="0.5" d="M159.921 108.359H164.507L164.305 106.829H159.687L159.921 108.359Z" fill="#FAFAFA"/>
<path opacity="0.5" d="M153.95 68.4443H159.289L159.022 66.3611H153.634L153.95 68.4443Z" fill="#FAFAFA"/>
<path opacity="0.5" d="M153.164 63.1795H158.601L158.317 61.0149H152.84L153.164 63.1795Z" fill="#FAFAFA"/>
<path opacity="0.5" d="M160.48 112.11H164.993L164.799 110.621H160.262L160.48 112.11Z" fill="#FAFAFA"/>
<path d="M188.116 103.696C188.116 103.346 188.569 103.061 189.161 103.061H266.792C267.384 103.061 267.781 103.346 267.684 103.696C267.556 103.909 267.372 104.082 267.151 104.194C266.93 104.306 266.682 104.354 266.436 104.33H189.201C188.61 104.33 188.124 104.046 188.116 103.696Z" fill="#FAFAFA"/>
<path d="M267.578 100.335H224.59C223.99 100.335 223.537 100.042 223.577 99.6759C223.618 99.3097 224.136 99.0249 224.744 99.0249H267.951C268.55 99.0249 268.955 99.3179 268.85 99.6759C268.724 99.8969 268.536 100.077 268.311 100.194C268.085 100.31 267.831 100.36 267.578 100.335Z" fill="#FAFAFA"/>
<path opacity="0.5" d="M214.39 100.335H201.038C200.439 100.335 199.952 100.042 199.961 99.6759C199.969 99.3097 200.455 99.0249 201.062 99.0249H214.487C215.087 99.0249 215.557 99.3179 215.524 99.6759C215.492 100.034 214.989 100.335 214.39 100.335Z" fill="#FAFAFA"/>
<path d="M242.292 96.2012H181.658C181.051 96.2012 180.54 95.9001 180.516 95.5257C180.492 95.1514 180.97 94.8503 181.585 94.8503H242.543C243.151 94.8503 243.597 95.1514 243.524 95.5257C243.451 95.9001 242.908 96.2012 242.292 96.2012Z" fill="#FAFAFA"/>
<path opacity="0.5" d="M168.979 94.8503H173.306C173.913 94.8503 174.44 95.1514 174.472 95.5257C174.505 95.9001 174.035 96.2012 173.427 96.2012H169.125C168.517 96.2012 167.991 95.9001 167.95 95.5257C167.91 95.1514 168.372 94.8503 168.979 94.8503Z" fill="#FAFAFA"/>
<path d="M251.067 91.2373C250.986 91.6197 250.418 91.9289 249.795 91.9289H192.661C192.037 91.9289 191.535 91.6197 191.526 91.2373C191.518 90.8548 192.021 90.5293 192.636 90.5293H250.086C250.71 90.5293 251.148 90.8467 251.067 91.2373Z" fill="#FAFAFA"/>
<path d="M168.525 90.5293H184.729C185.353 90.5293 185.871 90.8467 185.888 91.2373C185.904 91.6279 185.41 91.9289 184.794 91.9289H168.671C168.055 91.9289 167.521 91.6197 167.472 91.2373C167.424 90.8548 167.902 90.5293 168.525 90.5293Z" fill="#FAFAFA"/>
<path d="M168.047 86.0701H230.383C231.015 86.0701 231.485 86.3956 231.428 86.7943C231.371 87.193 230.82 87.5185 230.188 87.5185H168.201C167.578 87.5185 167.027 87.193 166.986 86.7943C166.946 86.3956 167.415 86.0701 168.047 86.0701Z" fill="#FAFAFA"/>
<path d="M208.516 82.9453C207.876 82.9453 207.374 82.6117 207.39 82.1966C207.406 81.7816 207.941 81.448 208.589 81.448H241.474C242.122 81.448 242.584 81.7898 242.511 82.1966C242.438 82.6035 241.863 82.9453 241.223 82.9453H208.516Z" fill="#FAFAFA"/>
<path d="M167.561 81.448H196.023C196.671 81.448 197.19 81.7898 197.19 82.1966C197.19 82.6035 196.663 82.9453 196.023 82.9453H167.723C167.075 82.9453 166.524 82.6117 166.476 82.1966C166.427 81.7816 166.913 81.448 167.561 81.448Z" fill="#FAFAFA"/>
<path d="M273.897 78.2174H195.545C194.897 78.2174 194.362 77.8675 194.362 77.4444C194.362 77.0212 194.889 76.6306 195.545 76.6306H274.335C274.991 76.6306 275.421 76.9805 275.299 77.4444C275.165 77.6956 274.961 77.9024 274.712 78.0397C274.464 78.1769 274.18 78.2386 273.897 78.2174Z" fill="#FAFAFA"/>
<path d="M275.291 73.3187H206.353C205.689 73.3187 205.162 72.9606 205.178 72.5049C205.194 72.0492 205.745 71.6912 206.41 71.6912H275.753C276.417 71.6912 276.855 72.0492 276.725 72.5049C276.593 72.7678 276.386 72.9853 276.131 73.1302C275.876 73.275 275.583 73.3406 275.291 73.3187Z" fill="#FAFAFA"/>
<path opacity="0.5" d="M276.749 68.2327H262.312C261.631 68.2327 261.17 67.8665 261.275 67.419C261.401 67.1532 261.606 66.9327 261.861 66.7871C262.116 66.6416 262.409 66.5781 262.701 66.6052H277.195C277.876 66.6052 278.321 66.9795 278.183 67.419C278.049 67.6797 277.842 67.8955 277.587 68.04C277.332 68.1845 277.041 68.2515 276.749 68.2327Z" fill="#FAFAFA"/>
<path d="M252.209 68.2327H199.199C198.526 68.2327 197.975 67.8665 197.983 67.419C197.992 66.9714 198.534 66.6052 199.215 66.6052H252.541C253.222 66.6052 253.691 66.9795 253.602 67.419C253.484 67.6837 253.285 67.9044 253.036 68.0504C252.786 68.1963 252.497 68.26 252.209 68.2327Z" fill="#FAFAFA"/>
<path d="M170.251 106.975H219.21C219.794 106.975 220.239 107.252 220.199 107.594C220.158 107.936 219.672 108.204 219.089 108.204H170.405C169.822 108.204 169.319 107.927 169.279 107.594C169.238 107.26 169.684 106.975 170.251 106.975Z" fill="#FAFAFA"/>
<path d="M170.672 110.767H245.89C246.457 110.767 246.87 111.036 246.797 111.361C246.724 111.687 246.214 111.955 245.638 111.955H170.802C170.227 111.955 169.733 111.695 169.7 111.361C169.668 111.028 170.097 110.767 170.672 110.767Z" fill="#FAFAFA"/>
<path d="M249.576 62.9677H211.287C210.598 62.9677 210.063 62.5771 210.088 62.1051C210.112 61.6331 210.687 61.2344 211.384 61.2344H249.9C250.597 61.2344 251.083 61.625 250.994 62.1051C250.878 62.3808 250.679 62.6128 250.424 62.7678C250.17 62.9228 249.873 62.9927 249.576 62.9677Z" fill="#FAFAFA"/>
<path opacity="0.5" d="M200.43 62.9677H165.592C164.904 62.9677 164.296 62.5771 164.248 62.1051C164.199 61.6331 164.709 61.2344 165.406 61.2344H200.446C201.135 61.2344 201.694 61.625 201.686 62.1051C201.678 62.5852 201.119 62.9677 200.43 62.9677Z" fill="#FAFAFA"/>
<path opacity="0.5" d="M230.083 106.975C230.666 106.975 231.104 107.252 231.055 107.594C231.007 107.936 230.496 108.204 229.913 108.204H226.154C225.578 108.204 225.141 107.927 225.181 107.594C225.222 107.26 225.724 106.975 226.307 106.975H230.083Z" fill="#FAFAFA"/>
<path opacity="0.5" d="M183.652 103.696C183.652 104.046 183.206 104.33 182.614 104.33H177.462C176.87 104.33 176.368 104.046 176.344 103.696C176.319 103.346 176.773 103.061 177.365 103.061H182.542C183.133 103.061 183.635 103.338 183.652 103.696Z" fill="#FAFAFA"/>
<path opacity="0.5" d="M245.833 86.7943C245.76 87.193 245.185 87.5185 244.561 87.5185H238.533C237.901 87.5185 237.448 87.193 237.504 86.7943C237.561 86.3956 238.136 86.0701 238.768 86.0701H244.828C245.46 86.0701 245.914 86.3956 245.833 86.7943Z" fill="#FAFAFA"/>
<path opacity="0.5" d="M264.637 90.5294C265.261 90.5294 265.682 90.8468 265.577 91.2374C265.45 91.4678 265.259 91.656 265.028 91.7788C264.796 91.9017 264.533 91.9539 264.272 91.929H259.468C258.844 91.929 258.423 91.6198 258.512 91.2374C258.633 91.0024 258.821 90.8093 259.052 90.6831C259.283 90.5568 259.547 90.5033 259.808 90.5294H264.637Z" fill="#FAFAFA"/>
<path opacity="0.5" d="M186.058 78.2174C185.41 78.2174 184.867 77.8675 184.843 77.4444C184.818 77.0212 185.345 76.6306 186.001 76.6306H191.113C191.77 76.6306 192.304 76.9805 192.312 77.4444C192.321 77.9082 191.794 78.2174 191.146 78.2174H186.058Z" fill="#FAFAFA"/>
<path d="M116.431 53.1622C116.554 53.4361 116.604 53.7375 116.576 54.0367C116.548 54.3359 116.443 54.6227 116.272 54.8689C116.1 55.1151 115.868 55.3123 115.597 55.441C115.327 55.5698 115.028 55.6258 114.729 55.6034C114.016 55.5609 113.332 55.3061 112.763 54.8713C112.195 54.4365 111.768 53.8415 111.537 53.1622C111.415 52.8895 111.365 52.5898 111.392 52.292C111.42 51.9943 111.523 51.7087 111.693 51.463C111.862 51.2173 112.092 51.0198 112.36 50.8898C112.629 50.7597 112.926 50.7016 113.223 50.7209C113.939 50.758 114.628 51.0107 115.201 51.446C115.773 51.8813 116.201 52.4792 116.431 53.1622Z" fill="#FAFAFA"/>
<path d="M123.026 53.2028C123.136 53.484 123.173 53.7887 123.135 54.0884C123.096 54.3881 122.982 54.6731 122.804 54.9168C122.626 55.1605 122.39 55.355 122.117 55.4822C121.844 55.6093 121.543 55.665 121.243 55.6441C120.539 55.6044 119.863 55.3493 119.307 54.9129C118.751 54.4766 118.341 53.8799 118.132 53.2028C118.025 52.9229 117.989 52.6205 118.028 52.3231C118.067 52.0257 118.179 51.7429 118.355 51.5002C118.531 51.2576 118.764 51.0629 119.033 50.9339C119.303 50.8049 119.6 50.7457 119.898 50.7616C120.607 50.7945 121.288 51.0468 121.848 51.4839C122.408 51.921 122.819 52.5214 123.026 53.2028Z" fill="#FAFAFA"/>
<path d="M129.693 53.162C129.791 53.4493 129.817 53.7565 129.768 54.0562C129.72 54.356 129.599 54.6391 129.415 54.8805C129.232 55.1218 128.992 55.3141 128.717 55.4402C128.442 55.5662 128.14 55.6222 127.838 55.6032C127.14 55.57 126.47 55.3161 125.925 54.8776C125.379 54.4392 124.985 53.8387 124.8 53.162C124.705 52.8753 124.68 52.5696 124.729 52.2715C124.778 51.9733 124.899 51.6916 125.081 51.451C125.263 51.2103 125.501 51.018 125.774 50.8908C126.047 50.7635 126.347 50.7051 126.647 50.7207C127.348 50.7485 128.021 51.0003 128.569 51.4395C129.117 51.8786 129.511 52.4821 129.693 53.162Z" fill="#FAFAFA"/>
<path opacity="0.1" d="M66.0457 44.2922L87.88 102.906L114.219 44.2922H66.0457Z" fill="#FAFAFA"/>
<path opacity="0.1" d="M102.885 119.556L146.57 44.2922H192.312L128.008 119.556H102.885Z" fill="#FAFAFA"/>
<path opacity="0.1" d="M212.024 43.926L143.92 119.556H154.412L224.954 44.2922L212.024 43.926Z" fill="#FAFAFA"/>
<path opacity="0.1" d="M225.473 119.556L300.318 44.2922H310.882L233.713 119.556H225.473Z" fill="#FAFAFA"/>
<path d="M349.301 215.733C349.297 218.967 349.026 222.195 348.491 225.384C346.141 239.47 338.769 249.739 330.051 249.739C329.272 249.74 328.496 249.658 327.734 249.495C318.214 247.469 310.833 233.131 310.833 215.733C310.833 196.952 319.438 190.303 330.051 190.303C340.664 190.303 349.301 196.919 349.301 215.733Z" fill="white"/>
<path d="M342.358 215.944C343.071 226.019 341.353 236.142 338.461 245.817C345.704 239.844 349.034 230.453 352.048 221.543C354.235 215.074 356.447 208.401 356.05 201.582C355.653 194.762 351.999 187.658 345.647 185.307C342.462 184.152 338.967 184.207 335.82 185.461C330.48 187.618 333.389 189.359 335.649 193.216C339.579 200.181 341.874 207.954 342.358 215.944Z" fill="#92E3A9"/>
<path opacity="0.5" d="M342.358 215.944C343.071 226.019 341.353 236.142 338.461 245.817C345.704 239.844 349.034 230.453 352.048 221.543C354.235 215.074 356.447 208.401 356.05 201.582C355.653 194.762 351.999 187.658 345.647 185.307C342.462 184.152 338.967 184.207 335.82 185.461C330.48 187.618 333.389 189.359 335.649 193.216C339.579 200.181 341.874 207.954 342.358 215.944Z" fill="white"/>
<path d="M349.301 215.733C349.297 218.967 349.026 222.195 348.491 225.384C346.141 239.47 338.769 249.739 330.051 249.739C329.272 249.74 328.496 249.658 327.734 249.495C318.214 247.469 310.833 233.131 310.833 215.733C310.833 196.952 319.438 190.303 330.051 190.303C340.664 190.303 349.301 196.919 349.301 215.733Z" stroke="#263238" stroke-miterlimit="10"/>
<path d="M340.429 233.009C339.152 237.358 337.004 241.401 334.118 244.889L340.429 233.009Z" fill="#FAFAFA"/>
<path d="M340.429 233.009C339.152 237.358 337.004 241.401 334.118 244.889" stroke="#263238" stroke-miterlimit="10"/>
<path d="M341.037 230.649C340.94 231.104 340.827 231.56 340.705 232.016" stroke="#263238" stroke-miterlimit="10"/>
<path d="M340.989 215.684C342.002 220.029 342.131 224.535 341.37 228.932L340.989 215.684Z" fill="#FAFAFA"/>
<path d="M340.989 215.684C342.002 220.029 342.131 224.535 341.37 228.932" stroke="#263238" stroke-miterlimit="10"/>
<path d="M310.874 215.733C310.874 215.733 332.749 207.058 349.325 215.733" stroke="#263238" stroke-miterlimit="10"/>
<path d="M330.1 190.303C330.1 190.303 332.287 198.441 332.53 211.68L330.1 190.303Z" fill="#FAFAFA"/>
<path d="M330.1 190.303C330.1 190.303 332.287 198.441 332.53 211.68" stroke="#263238" stroke-miterlimit="10"/>
<path d="M333.154 200.174C333.429 202.705 332.992 204.853 332.174 204.983C331.355 205.113 330.464 203.169 330.189 200.646C329.913 198.123 330.343 195.959 331.161 195.829C331.979 195.698 332.87 197.676 333.154 200.174Z" fill="#BFBFBF" stroke="#263238" stroke-linecap="round" stroke-linejoin="round"/>
<path d="M321.48 256.249H295.829C294.308 256.251 292.839 255.699 291.693 254.695C290.547 253.69 289.803 252.303 289.599 250.789C289.546 250.502 289.521 250.21 289.526 249.918V189.221C289.522 188.926 289.547 188.632 289.599 188.342C289.803 186.829 290.548 185.442 291.694 184.439C292.84 183.437 294.309 182.886 295.829 182.89H368.519C369.579 182.897 370.619 183.178 371.541 183.704" stroke="#263238" stroke-miterlimit="10"/>
</g>
<defs>
<clipPath id="clip0_42_50">
<rect width="375" height="322" fill="white"/>
</clipPath>
</defs>
</svg>
