<svg width="64" height="64" viewBox="0 0 64 64" fill="none" xmlns="http://www.w3.org/2000/svg">
<path d="M54.8799 11.0394C54.8399 11.0494 54.7999 11.0644 54.7599 11.0794C54.4249 11.1644 54.1349 11.3794 53.9599 11.6794L27.7999 52.2394L9.79989 35.9994C9.48489 35.5994 8.95989 35.4244 8.46489 35.5544C7.96989 35.6844 7.60489 36.0994 7.52989 36.6044C7.45489 37.1094 7.68489 37.6094 8.11989 37.8794L27.1999 55.1594C27.4799 55.4044 27.8549 55.5144 28.2249 55.4594C28.5949 55.4044 28.9199 55.1944 29.1199 54.8794L56.1199 13.0394C56.4149 12.6194 56.4299 12.0644 56.1599 11.6294C55.8899 11.1944 55.3849 10.9644 54.8799 11.0394Z" fill="#D8F520"/>
</svg>
