<svg width="173" height="32" viewBox="0 0 173 32" fill="none" xmlns="http://www.w3.org/2000/svg">
<path d="M28.9795 13.0357V0H34.2124C35.5656 0 36.5961 0.316582 37.3037 0.949745C38.0238 1.57049 38.3838 2.37126 38.3838 3.35204C38.3838 4.17143 38.1604 4.82942 37.7134 5.32602C37.2789 5.81021 36.7451 6.1392 36.1119 6.31301C36.8568 6.46199 37.4713 6.83444 37.9555 7.43036C38.4397 8.01386 38.6818 8.69669 38.6818 9.47883C38.6818 10.5093 38.3093 11.3597 37.5644 12.0301C36.8195 12.7005 35.7643 13.0357 34.3986 13.0357H28.9795ZM31.3632 5.475H33.8586C34.529 5.475 35.0442 5.31982 35.4042 5.00944C35.7643 4.69907 35.9443 4.25834 35.9443 3.68725C35.9443 3.14099 35.7643 2.71267 35.4042 2.4023C35.0566 2.07951 34.529 1.91811 33.8213 1.91811H31.3632V5.475ZM31.3632 11.099H34.0262C34.7338 11.099 35.2801 10.9376 35.665 10.6148C36.0622 10.2796 36.2609 9.81404 36.2609 9.21812C36.2609 8.60978 36.056 8.13181 35.6463 7.78419C35.2366 7.43657 34.6842 7.26276 33.9889 7.26276H31.3632V11.099Z" fill="white"/>
<path d="M40.5254 13.0357L45.2928 0H47.9744L52.7418 13.0357H50.2091L49.1662 10.0189H44.0823L43.0208 13.0357H40.5254ZM44.7341 8.15664H48.5145L46.615 2.7375L44.7341 8.15664Z" fill="white"/>
<path d="M54.7748 13.0357V11.2107L60.7712 1.9926H54.8307V0H63.5274V1.825L57.4937 11.0431H63.5646V13.0357H54.7748Z" fill="white"/>
<path d="M65.6206 13.0357L70.388 0H73.0696L77.837 13.0357H75.3043L74.2615 10.0189H69.1775L68.116 13.0357H65.6206ZM69.8293 8.15664H73.6097L71.7102 2.7375L69.8293 8.15664Z" fill="white"/>
<path d="M80.2611 13.0357V0H85.0471C86.0899 0 86.9466 0.180017 87.617 0.540052C88.2998 0.887671 88.8088 1.36565 89.144 1.97398C89.4792 2.5699 89.6468 3.2341 89.6468 3.96658C89.6468 4.76114 89.4358 5.48742 89.0136 6.14541C88.604 6.80341 87.9584 7.28138 87.0769 7.57934L89.7772 13.0357H87.0397L84.6187 7.89592H82.6448V13.0357H80.2611ZM82.6448 6.14541H84.8981C85.6926 6.14541 86.2761 5.95298 86.6486 5.56812C87.021 5.18325 87.2073 4.67424 87.2073 4.04107C87.2073 3.42032 87.021 2.92373 86.6486 2.55128C86.2886 2.17883 85.6988 1.9926 84.8795 1.9926H82.6448V6.14541Z" fill="white"/>
<path d="M29.0044 31.7765V18.7407H33.4552C34.9822 18.7407 36.2362 19.0138 37.2169 19.56C38.2101 20.0939 38.9426 20.8514 39.4144 21.8321C39.8985 22.8005 40.1406 23.9427 40.1406 25.2587C40.1406 26.5747 39.8985 27.723 39.4144 28.7038C38.9426 29.6722 38.2101 30.4295 37.2169 30.9758C36.2362 31.5096 34.9822 31.7765 33.4552 31.7765H29.0044ZM31.3881 29.7281H33.3435C34.436 29.7281 35.2988 29.5542 35.932 29.2066C36.5652 28.8466 37.0183 28.3376 37.2914 27.6796C37.5646 27.0092 37.7011 26.2022 37.7011 25.2587C37.7011 24.3275 37.5646 23.5268 37.2914 22.8564C37.0183 22.186 36.5652 21.6706 35.932 21.3106C35.2988 20.9505 34.436 20.7705 33.3435 20.7705H31.3881V29.7281Z" fill="white"/>
<path d="M42.9887 31.7765V18.7407H51.4992V20.6588H45.3724V24.2344H50.9405V26.0967H45.3724V29.8584H51.4992V31.7765H42.9887Z" fill="white"/>
<path d="M58.2801 31.7765L53.5128 18.7407H56.064L59.7513 29.337L63.4572 18.7407H65.9712L61.2038 31.7765H58.2801Z" fill="white"/>
<path d="M68.2658 31.7765V18.7407H76.7763V20.6588H70.6495V24.2344H76.2176V26.0967H70.6495V29.8584H76.7763V31.7765H68.2658Z" fill="white"/>
<path d="M79.7768 31.7765V18.7407H82.1605V29.9143H87.9335V31.7765H79.7768Z" fill="white"/>
<path d="M95.7047 32C94.4012 32 93.259 31.7145 92.2782 31.1434C91.3098 30.5723 90.5463 29.7839 89.9876 28.7783C89.4414 27.7603 89.1682 26.5871 89.1682 25.2587C89.1682 23.9303 89.4414 22.7633 89.9876 21.7576C90.5463 20.7396 91.3098 19.9449 92.2782 19.3738C93.259 18.8027 94.4012 18.5172 95.7047 18.5172C96.9959 18.5172 98.1319 18.8027 99.1126 19.3738C100.093 19.9449 100.857 20.7396 101.403 21.7576C101.949 22.7633 102.223 23.9303 102.223 25.2587C102.223 26.5871 101.949 27.7603 101.403 28.7783C100.857 29.7839 100.093 30.5723 99.1126 31.1434C98.1319 31.7145 96.9959 32 95.7047 32ZM95.7047 29.8584C96.9462 29.8584 97.9332 29.4487 98.6657 28.6293C99.4106 27.8099 99.783 26.6864 99.783 25.2587C99.783 23.8309 99.4106 22.7074 98.6657 21.888C97.9332 21.0686 96.9462 20.6588 95.7047 20.6588C94.4632 20.6588 93.47 21.0686 92.7251 21.888C91.9802 22.7074 91.6078 23.8309 91.6078 25.2587C91.6078 26.6864 91.9802 27.8099 92.7251 28.6293C93.47 29.4487 94.4632 29.8584 95.7047 29.8584Z" fill="white"/>
<path d="M105.072 31.7765V18.7407H109.895C110.938 18.7407 111.801 18.9145 112.484 19.2621C113.167 19.6097 113.676 20.0877 114.011 20.696C114.346 21.3043 114.514 21.9873 114.514 22.7446C114.514 23.4647 114.352 24.1289 114.029 24.7372C113.707 25.3332 113.204 25.8173 112.521 26.1898C111.838 26.5498 110.963 26.7298 109.895 26.7298H107.456V31.7765H105.072ZM107.456 24.7931H109.746C110.578 24.7931 111.174 24.6131 111.534 24.2531C111.906 23.8806 112.093 23.3778 112.093 22.7446C112.093 22.0991 111.906 21.5961 111.534 21.2361C111.174 20.8636 110.578 20.6774 109.746 20.6774H107.456V24.7931Z" fill="white"/>
<path d="M117.129 31.7765V18.7407H119.959L124.112 27.0092L128.209 18.7407H131.04V31.7765H128.656V22.7819L125.025 29.9143H123.144L119.512 22.7819V31.7765H117.129Z" fill="white"/>
<path d="M134.314 31.7765V18.7407H142.824V20.6588H136.697V24.2344H142.265V26.0967H136.697V29.8584H142.824V31.7765H134.314Z" fill="white"/>
<path d="M145.825 31.7765V18.7407H148.208L154.335 27.9217V18.7407H156.719V31.7765H154.335L148.208 22.6143V31.7765H145.825Z" fill="white"/>
<path d="M163.026 31.7765V20.6588H159.227V18.7407H169.228V20.6588H165.41V31.7765H163.026Z" fill="white"/>
<path d="M171.215 31.9069C170.781 31.9069 170.421 31.7703 170.135 31.4972C169.862 31.2241 169.726 30.8951 169.726 30.5102C169.726 30.1129 169.862 29.7777 170.135 29.5046C170.421 29.2315 170.781 29.0949 171.215 29.0949C171.65 29.0949 172.004 29.2315 172.277 29.5046C172.562 29.7777 172.705 30.1129 172.705 30.5102C172.705 30.8951 172.562 31.2241 172.277 31.4972C172.004 31.7703 171.65 31.9069 171.215 31.9069Z" fill="white"/>
<path d="M20.6254 0.00544213L23.2896 0.00537109L2.57791 31.7709H0L20.6254 0.00544213Z" fill="#D8F520"/>
</svg>
