<svg width="18" height="18" viewBox="0 0 18 18" fill="none" xmlns="http://www.w3.org/2000/svg">
<path d="M2.15994 1.43994C1.76644 1.43994 1.43994 1.76644 1.43994 2.15994V5.03994C1.43994 5.43344 1.76644 5.75994 2.15994 5.75994H5.03994C5.43344 5.75994 5.75994 5.43344 5.75994 5.03994V2.15994C5.75994 1.76644 5.43344 1.43994 5.03994 1.43994H2.15994ZM7.55994 1.43994C7.16644 1.43994 6.83994 1.76644 6.83994 2.15994V5.03994C6.83994 5.43344 7.16644 5.75994 7.55994 5.75994H10.4399C10.8334 5.75994 11.1599 5.43344 11.1599 5.03994V2.15994C11.1599 1.76644 10.8334 1.43994 10.4399 1.43994H7.55994ZM12.9599 1.43994C12.5664 1.43994 12.2399 1.76644 12.2399 2.15994V5.03994C12.2399 5.43344 12.5664 5.75994 12.9599 5.75994H15.8399C16.2334 5.75994 16.5599 5.43344 16.5599 5.03994V2.15994C16.5599 1.76644 16.2334 1.43994 15.8399 1.43994H12.9599ZM2.15994 2.15994H5.03994V5.03994H2.15994V2.15994ZM7.55994 2.15994H10.4399V5.03994H7.55994V2.15994ZM12.9599 2.15994H15.8399V5.03994H12.9599V2.15994ZM2.15994 6.83994C1.76644 6.83994 1.43994 7.16644 1.43994 7.55994V10.4399C1.43994 10.8334 1.76644 11.1599 2.15994 11.1599H5.03994C5.43344 11.1599 5.75994 10.8334 5.75994 10.4399V7.55994C5.75994 7.16644 5.43344 6.83994 5.03994 6.83994H2.15994ZM7.55994 6.83994C7.16644 6.83994 6.83994 7.16644 6.83994 7.55994V10.4399C6.83994 10.8334 7.16644 11.1599 7.55994 11.1599H10.4399C10.8334 11.1599 11.1599 10.8334 11.1599 10.4399V7.55994C11.1599 7.16644 10.8334 6.83994 10.4399 6.83994H7.55994ZM12.9599 6.83994C12.5664 6.83994 12.2399 7.16644 12.2399 7.55994V10.4399C12.2399 10.8334 12.5664 11.1599 12.9599 11.1599H15.8399C16.2334 11.1599 16.5599 10.8334 16.5599 10.4399V7.55994C16.5599 7.16644 16.2334 6.83994 15.8399 6.83994H12.9599ZM2.15994 7.55994H5.03994V10.4399H2.15994V7.55994ZM7.55994 7.55994H10.4399V10.4399H7.55994V7.55994ZM12.9599 7.55994H15.8399V10.4399H12.9599V7.55994ZM2.15994 12.2399C1.76644 12.2399 1.43994 12.5664 1.43994 12.9599V15.8399C1.43994 16.2334 1.76644 16.5599 2.15994 16.5599H5.03994C5.43344 16.5599 5.75994 16.2334 5.75994 15.8399V12.9599C5.75994 12.5664 5.43344 12.2399 5.03994 12.2399H2.15994ZM7.55994 12.2399C7.16644 12.2399 6.83994 12.5664 6.83994 12.9599V15.8399C6.83994 16.2334 7.16644 16.5599 7.55994 16.5599H10.4399C10.8334 16.5599 11.1599 16.2334 11.1599 15.8399V12.9599C11.1599 12.5664 10.8334 12.2399 10.4399 12.2399H7.55994ZM12.9599 12.2399C12.5664 12.2399 12.2399 12.5664 12.2399 12.9599V15.8399C12.2399 16.2334 12.5664 16.5599 12.9599 16.5599H15.8399C16.2334 16.5599 16.5599 16.2334 16.5599 15.8399V12.9599C16.5599 12.5664 16.2334 12.2399 15.8399 12.2399H12.9599ZM2.15994 12.9599H5.03994V15.8399H2.15994V12.9599ZM7.55994 12.9599H10.4399V15.8399H7.55994V12.9599ZM12.9599 12.9599H15.8399V15.8399H12.9599V12.9599Z" fill="black"/>
</svg>
