<svg width="18" height="18" viewBox="0 0 18 18" fill="none" xmlns="http://www.w3.org/2000/svg">
<path d="M2.15994 1.43945C1.76644 1.43945 1.43994 1.76595 1.43994 2.15945V5.03945C1.43994 5.43296 1.76644 5.75945 2.15994 5.75945H5.03994C5.43344 5.75945 5.75994 5.43296 5.75994 5.03945V2.15945C5.75994 1.76595 5.43344 1.43945 5.03994 1.43945H2.15994ZM7.55994 1.43945C7.16644 1.43945 6.83994 1.76595 6.83994 2.15945V5.03945C6.83994 5.43296 7.16644 5.75945 7.55994 5.75945H10.4399C10.8334 5.75945 11.1599 5.43296 11.1599 5.03945V2.15945C11.1599 1.76595 10.8334 1.43945 10.4399 1.43945H7.55994ZM12.9599 1.43945C12.5664 1.43945 12.2399 1.76595 12.2399 2.15945V5.03945C12.2399 5.43296 12.5664 5.75945 12.9599 5.75945H15.8399C16.2334 5.75945 16.5599 5.43296 16.5599 5.03945V2.15945C16.5599 1.76595 16.2334 1.43945 15.8399 1.43945H12.9599ZM2.15994 2.15945H5.03994V5.03945H2.15994V2.15945ZM7.55994 2.15945H10.4399V5.03945H7.55994V2.15945ZM12.9599 2.15945H15.8399V5.03945H12.9599V2.15945ZM2.15994 6.83945C1.76644 6.83945 1.43994 7.16595 1.43994 7.55945V10.4395C1.43994 10.833 1.76644 11.1595 2.15994 11.1595H5.03994C5.43344 11.1595 5.75994 10.833 5.75994 10.4395V7.55945C5.75994 7.16595 5.43344 6.83945 5.03994 6.83945H2.15994ZM7.55994 6.83945C7.16644 6.83945 6.83994 7.16595 6.83994 7.55945V10.4395C6.83994 10.833 7.16644 11.1595 7.55994 11.1595H10.4399C10.8334 11.1595 11.1599 10.833 11.1599 10.4395V7.55945C11.1599 7.16595 10.8334 6.83945 10.4399 6.83945H7.55994ZM12.9599 6.83945C12.5664 6.83945 12.2399 7.16595 12.2399 7.55945V10.4395C12.2399 10.833 12.5664 11.1595 12.9599 11.1595H15.8399C16.2334 11.1595 16.5599 10.833 16.5599 10.4395V7.55945C16.5599 7.16595 16.2334 6.83945 15.8399 6.83945H12.9599ZM2.15994 7.55945H5.03994V10.4395H2.15994V7.55945ZM7.55994 7.55945H10.4399V10.4395H7.55994V7.55945ZM12.9599 7.55945H15.8399V10.4395H12.9599V7.55945ZM2.15994 12.2395C1.76644 12.2395 1.43994 12.566 1.43994 12.9595V15.8395C1.43994 16.233 1.76644 16.5595 2.15994 16.5595H5.03994C5.43344 16.5595 5.75994 16.233 5.75994 15.8395V12.9595C5.75994 12.566 5.43344 12.2395 5.03994 12.2395H2.15994ZM7.55994 12.2395C7.16644 12.2395 6.83994 12.566 6.83994 12.9595V15.8395C6.83994 16.233 7.16644 16.5595 7.55994 16.5595H10.4399C10.8334 16.5595 11.1599 16.233 11.1599 15.8395V12.9595C11.1599 12.566 10.8334 12.2395 10.4399 12.2395H7.55994ZM12.9599 12.2395C12.5664 12.2395 12.2399 12.566 12.2399 12.9595V15.8395C12.2399 16.233 12.5664 16.5595 12.9599 16.5595H15.8399C16.2334 16.5595 16.5599 16.233 16.5599 15.8395V12.9595C16.5599 12.566 16.2334 12.2395 15.8399 12.2395H12.9599ZM2.15994 12.9595H5.03994V15.8395H2.15994V12.9595ZM7.55994 12.9595H10.4399V15.8395H7.55994V12.9595ZM12.9599 12.9595H15.8399V15.8395H12.9599V12.9595Z" fill="black"/>
</svg>
