<svg aria-hidden="true" style="position: absolute; width: 0; height: 0; overflow: hidden;" version="1.1" xmlns="http://www.w3.org/2000/svg" xmlns:xlink="http://www.w3.org/1999/xlink">
<defs>
<symbol id="icon-Squared-Menu" viewBox="0 0 32 32">
<path d="M3.84 2.56c-0.7 0-1.28 0.58-1.28 1.28v5.12c0 0.7 0.58 1.28 1.28 1.28h5.12c0.7 0 1.28-0.58 1.28-1.28v-5.12c0-0.7-0.58-1.28-1.28-1.28h-5.12zM13.44 2.56c-0.7 0-1.28 0.58-1.28 1.28v5.12c0 0.7 0.58 1.28 1.28 1.28h5.12c0.7 0 1.28-0.58 1.28-1.28v-5.12c0-0.7-0.58-1.28-1.28-1.28h-5.12zM23.040 2.56c-0.7 0-1.28 0.58-1.28 1.28v5.12c0 0.7 0.58 1.28 1.28 1.28h5.12c0.7 0 1.28-0.58 1.28-1.28v-5.12c0-0.7-0.58-1.28-1.28-1.28h-5.12zM3.84 3.84h5.12v5.12h-5.12v-5.12zM13.44 3.84h5.12v5.12h-5.12v-5.12zM23.040 3.84h5.12v5.12h-5.12v-5.12zM3.84 12.16c-0.7 0-1.28 0.58-1.28 1.28v5.12c0 0.7 0.58 1.28 1.28 1.28h5.12c0.7 0 1.28-0.58 1.28-1.28v-5.12c0-0.7-0.58-1.28-1.28-1.28h-5.12zM13.44 12.16c-0.7 0-1.28 0.58-1.28 1.28v5.12c0 0.7 0.58 1.28 1.28 1.28h5.12c0.7 0 1.28-0.58 1.28-1.28v-5.12c0-0.7-0.58-1.28-1.28-1.28h-5.12zM23.040 12.16c-0.7 0-1.28 0.58-1.28 1.28v5.12c0 0.7 0.58 1.28 1.28 1.28h5.12c0.7 0 1.28-0.58 1.28-1.28v-5.12c0-0.7-0.58-1.28-1.28-1.28h-5.12zM3.84 13.44h5.12v5.12h-5.12v-5.12zM13.44 13.44h5.12v5.12h-5.12v-5.12zM23.040 13.44h5.12v5.12h-5.12v-5.12zM3.84 21.76c-0.7 0-1.28 0.58-1.28 1.28v5.12c0 0.7 0.58 1.28 1.28 1.28h5.12c0.7 0 1.28-0.58 1.28-1.28v-5.12c0-0.7-0.58-1.28-1.28-1.28h-5.12zM13.44 21.76c-0.7 0-1.28 0.58-1.28 1.28v5.12c0 0.7 0.58 1.28 1.28 1.28h5.12c0.7 0 1.28-0.58 1.28-1.28v-5.12c0-0.7-0.58-1.28-1.28-1.28h-5.12zM23.040 21.76c-0.7 0-1.28 0.58-1.28 1.28v5.12c0 0.7 0.58 1.28 1.28 1.28h5.12c0.7 0 1.28-0.58 1.28-1.28v-5.12c0-0.7-0.58-1.28-1.28-1.28h-5.12zM3.84 23.040h5.12v5.12h-5.12v-5.12zM13.44 23.040h5.12v5.12h-5.12v-5.12zM23.040 23.040h5.12v5.12h-5.12v-5.12z"></path>
</symbol>
</defs>
</svg>
